<svg width="32" height="32" viewBox="0 0 32 32" fill="none" xmlns="http://www.w3.org/2000/svg">
<path d="M26.6433 4.5387H24.5966V4.12936C24.5966 3.45243 24.0456 2.90137 23.3687 2.90137C22.6917 2.90137 22.1407 3.45243 22.1407 4.12936V4.5387H9.86069V4.12936C9.86069 3.45243 9.30962 2.90137 8.63269 2.90137C7.95576 2.90137 7.40469 3.45243 7.40469 4.12936V4.5387H5.35803C4.45494 4.5387 3.7207 5.27294 3.7207 6.17603V23.368C3.7207 24.2711 4.45494 25.0053 5.35803 25.0053H11.9073C12.1335 25.0053 12.3167 24.8221 12.3167 24.596C12.3167 24.3698 12.1335 24.1866 11.9073 24.1866H5.35803C4.90674 24.1866 4.53937 23.8193 4.53937 23.368V9.45068H27.462V23.368C27.462 23.8193 27.0946 24.1866 26.6433 24.1866H20.094C19.8678 24.1866 19.6847 24.3698 19.6847 24.596C19.6847 24.8221 19.8678 25.0053 20.094 25.0053H26.6433C27.5464 25.0053 28.2806 24.2711 28.2806 23.368C28.2806 22.6189 28.2806 6.99858 28.2806 6.17603C28.2806 5.27294 27.5464 4.5387 26.6433 4.5387ZM9.04202 6.17603C9.04202 6.40167 8.85834 6.58536 8.63269 6.58536C8.40705 6.58536 8.22336 6.40167 8.22336 6.17603C8.22336 5.46466 8.22336 4.83858 8.22336 4.12936C8.22336 3.90372 8.40705 3.72003 8.63269 3.72003C8.85834 3.72003 9.04202 3.90372 9.04202 4.12936V6.17603ZM23.778 6.17603C23.778 6.40167 23.5943 6.58536 23.3687 6.58536C23.143 6.58536 22.9593 6.40167 22.9593 6.17603C22.9593 5.46466 22.9593 4.83858 22.9593 4.12936C22.9593 3.90372 23.143 3.72003 23.3687 3.72003C23.5943 3.72003 23.778 3.90372 23.778 4.12936V6.17603Z" fill="black"/>
<path d="M20.0941 28.28H19.6367L19.2724 25.364C19.2468 25.1588 19.0723 25.0053 18.8661 25.0053H16.4101V22.8666C17.5824 22.5241 18.6228 21.7621 19.2949 20.7007L21.4633 19.1744C22.3681 18.538 22.9594 17.4904 22.9594 16.3393C22.9594 14.9449 21.2668 14.2498 20.2839 15.231L20.0941 15.4208V14.3627C20.0941 14.1365 19.9109 13.9534 19.6848 13.9534H12.3168C12.0906 13.9534 11.9075 14.1365 11.9075 14.3627V15.4208L11.7176 15.231C10.7556 14.2706 9.00274 14.8818 9.04367 16.4559C9.07898 17.5248 9.63772 18.541 10.5377 19.1744L12.7067 20.7007C13.3785 21.7617 14.4188 22.5239 15.5915 22.8666V25.0053H13.1355C12.9293 25.0053 12.7548 25.1588 12.7292 25.364L12.3649 28.28H11.9075C11.6813 28.28 11.4981 28.4632 11.4981 28.6893C11.4981 28.9155 11.6813 29.0987 11.9075 29.0987H20.0941C20.3203 29.0987 20.5034 28.9155 20.5034 28.6893C20.5034 28.4632 20.3203 28.28 20.0941 28.28ZM20.0941 16.5792L20.8631 15.8102C21.3148 15.3569 22.1675 15.6251 22.1392 16.4293C22.1126 17.2424 21.6839 18.0185 20.9926 18.5051L19.9247 19.2568C20.1357 18.4578 20.0941 17.9817 20.0941 16.5792ZM11.009 18.5051C10.3091 18.0125 9.8608 17.2105 9.8608 16.3393C9.8608 15.6677 10.6737 15.3438 11.1384 15.8102L11.9075 16.5792C11.9075 17.9749 11.8661 18.4585 12.0768 19.2568L11.009 18.5051Z" fill="black"/>
</svg>
