<svg width="32" height="32" viewBox="0 0 32 32" fill="none" xmlns="http://www.w3.org/2000/svg">
<path d="M26.6349 5.00002L16.1349 2.00002C16.0466 1.97526 15.9531 1.97526 15.8649 2.00002L5.36485 5.00002C5.2567 5.03026 5.16188 5.09603 5.09567 5.18674C5.02945 5.27744 4.9957 5.38779 4.99985 5.50002V15.58C5.0053 18.8359 6.06753 22.0021 8.02685 24.6025C9.98616 27.2029 12.7367 29.097 15.8649 30C15.9529 30.0267 16.0468 30.0267 16.1349 30C19.263 29.097 22.0135 27.2029 23.9729 24.6025C25.9322 22.0021 26.9944 18.8359 26.9999 15.58V5.50002C27.004 5.38779 26.9702 5.27744 26.904 5.18674C26.8378 5.09603 26.743 5.03026 26.6349 5.00002ZM25.9999 15.58C25.9942 18.594 25.0189 21.5261 23.218 23.9429C21.4171 26.3597 18.8863 28.1328 15.9999 29C13.1166 28.1337 10.5882 26.3637 8.78766 23.9509C6.9871 21.5382 6.00976 18.6105 5.99985 15.6V5.87502L15.9999 3.00002L25.9999 5.85502V15.58Z" fill="black"/>
<path d="M7.5 7.00008V15.5801C7.50818 18.191 8.33177 20.7342 9.8557 22.8542C11.3796 24.9743 13.5278 26.5653 16 27.4051C18.4722 26.5653 20.6204 24.9743 22.1443 22.8542C23.6682 20.7342 24.4918 18.191 24.5 15.5801V7.00008L16 4.58008L7.5 7.00008ZM18.5 9.61008C18.4989 9.85989 18.4408 10.1062 18.33 10.3301L17.945 11.0951C17.8135 11.3664 17.6082 11.5953 17.3526 11.7553C17.097 11.9154 16.8016 12.0002 16.5 12.0001H16.645C16.8854 11.9972 17.1188 12.081 17.3025 12.2362C17.4862 12.3914 17.6077 12.6075 17.645 12.8451L18.975 20.3051C18.9991 20.4337 19.0108 20.5643 19.01 20.6951C19.0159 21.2126 18.8389 21.7155 18.51 22.1151L16.845 24.1151C16.7451 24.2357 16.6198 24.3327 16.478 24.3993C16.3363 24.466 16.1816 24.5005 16.025 24.5005C15.8684 24.5005 15.7137 24.466 15.572 24.3993C15.4302 24.3327 15.3049 24.2357 15.205 24.1151L13.54 22.1151C13.2111 21.7155 13.0341 21.2126 13.04 20.6951C13.0392 20.5643 13.0509 20.4337 13.075 20.3051L14.405 12.8451C14.4423 12.6075 14.5638 12.3914 14.7475 12.2362C14.9312 12.081 15.1646 11.9972 15.405 12.0001H15.5C15.1995 12.0011 14.9048 11.9178 14.6493 11.7596C14.3938 11.6013 14.1879 11.3746 14.055 11.1051L13.67 10.3401C13.5592 10.1162 13.5011 9.86989 13.5 9.62008C13.5 9.19043 13.6707 8.77838 13.9745 8.47457C14.2783 8.17076 14.6903 8.00008 15.12 8.00008H16.88C17.0927 8.00008 17.3034 8.04198 17.4999 8.12339C17.6965 8.20481 17.8751 8.32414 18.0255 8.47457C18.1759 8.625 18.2953 8.80358 18.3767 9.00013C18.4581 9.19668 18.5 9.40734 18.5 9.62008V9.61008Z" fill="black"/>
</svg>
