<svg width="32" height="32" viewBox="0 0 32 32" fill="none" xmlns="http://www.w3.org/2000/svg">
<path d="M24.3516 8.84313C25.1669 8.84247 25.9487 8.51829 26.5252 7.94175C27.1017 7.36522 27.4259 6.58347 27.4266 5.76813C27.2836 1.69813 21.4191 1.69863 21.2766 5.76813C21.2772 6.58347 21.6014 7.36522 22.1779 7.94175C22.7545 8.51829 23.5362 8.84247 24.3516 8.84313ZM22.0196 19.2621L20.2546 17.5171C20.1623 17.4266 20.1045 17.3067 20.0911 17.1781C20.0777 17.0495 20.1095 16.9203 20.1811 16.8126C20.9281 15.6856 22.0136 14.0621 22.7676 12.9306C23.5211 11.9291 23.5596 10.7286 22.3126 9.57163C21.5031 9.15463 20.1456 8.11163 19.2081 8.16863L14.5391 8.09513C13.9012 8.08701 13.2848 8.3252 12.8181 8.76013L9.70357 11.6791C9.52304 11.8478 9.37847 12.0513 9.27854 12.2773C9.17861 12.5032 9.12539 12.7471 9.12207 12.9941C9.12294 13.3579 9.23074 13.7133 9.43204 14.0163C9.63334 14.3192 9.91927 14.5563 10.2543 14.6981C10.5892 14.8398 10.9585 14.8799 11.3161 14.8134C11.6737 14.7469 12.0039 14.5768 12.2656 14.3241L14.1871 12.4026C14.2778 12.3121 14.3865 12.2414 14.506 12.1951C14.6256 12.1487 14.7535 12.1278 14.8816 12.1336L16.2406 12.2021C14.1826 15.1111 12.3991 17.0051 15.9816 19.8491C16.4686 20.2901 17.4971 21.1981 17.9911 21.6481C18.1233 21.7661 18.229 21.9107 18.3014 22.0725C18.3738 22.2342 18.4112 22.4094 18.4111 22.5866V27.2166C18.4131 27.7703 18.6349 28.3006 19.0279 28.6907C19.2224 28.8839 19.4531 29.0368 19.7068 29.1408C19.9605 29.2448 20.2322 29.2979 20.5063 29.2969C20.7805 29.2959 21.0518 29.2409 21.3047 29.1351C21.5576 29.0293 21.7872 28.8747 21.9804 28.6801C22.1736 28.4855 22.3265 28.2548 22.4305 28.0012C22.5345 27.7475 22.5876 27.4758 22.5866 27.2016L22.5381 20.4891C22.5369 20.2605 22.4904 20.0344 22.4015 19.8238C22.3125 19.6132 22.1827 19.4223 22.0196 19.2621Z" fill="black"/>
<path d="M13.2722 18.1866L11.6982 20.1276C11.6423 20.1957 11.5721 20.2507 11.4926 20.2887C11.4131 20.3267 11.3263 20.3468 11.2382 20.3476H7.45015C6.92144 20.3559 6.4172 20.5718 6.04625 20.9486C5.6753 21.3255 5.46739 21.8331 5.46739 22.3618C5.46739 22.8906 5.6753 23.3982 6.04625 23.775C6.4172 24.1519 6.92144 24.3678 7.45015 24.3761H12.9552C13.1975 24.3762 13.4367 24.3202 13.6538 24.2125C13.8709 24.1047 14.0601 23.9482 14.2067 23.7551C14.6067 23.2271 16.0987 21.2666 16.0987 21.2666C16.0207 21.1916 15.4237 20.6706 15.3657 20.6116C14.501 19.9639 13.7865 19.1366 13.2722 18.1866ZM28.0817 14.2066H25.7107C25.5482 14.207 25.3921 14.1438 25.2757 14.0306C24.8521 13.618 24.43 13.204 24.0092 12.7886C23.9542 12.9296 22.1347 15.6486 21.7747 16.1821L22.4197 16.8271C22.9432 17.2821 23.6077 18.1521 24.3902 18.0836H28.0817C28.5958 18.0836 29.0888 17.8794 29.4524 17.5158C29.8159 17.1523 30.0202 16.6592 30.0202 16.1451C30.0202 15.631 29.8159 15.1379 29.4524 14.7744C29.0888 14.4108 28.5958 14.2066 28.0817 14.2066ZM4.32015 3.92209H4.95715C5.02265 3.92418 5.0879 3.91309 5.14903 3.88947C5.21016 3.86585 5.26592 3.83019 5.31299 3.7846C5.36006 3.739 5.39749 3.68442 5.42306 3.62407C5.44862 3.56373 5.46179 3.49887 5.46179 3.43334C5.46179 3.3678 5.44862 3.30294 5.42306 3.2426C5.39749 3.18226 5.36006 3.12767 5.31299 3.08208C5.26592 3.03649 5.21016 3.00082 5.14903 2.9772C5.0879 2.95358 5.02265 2.94249 4.95715 2.94459H4.32015C4.19324 2.94865 4.07287 3.00192 3.98453 3.09313C3.89619 3.18435 3.84679 3.30635 3.84679 3.43334C3.84679 3.56032 3.89619 3.68232 3.98453 3.77354C4.07287 3.86475 4.19324 3.91803 4.32015 3.92209ZM7.33665 4.03059H11.0137C11.1433 4.03059 11.2677 3.97907 11.3594 3.88736C11.4511 3.79566 11.5027 3.67128 11.5027 3.54159C11.5027 3.4119 11.4511 3.28752 11.3594 3.19581C11.2677 3.10411 11.1433 3.05259 11.0137 3.05259H7.33665C7.20696 3.05259 7.08258 3.10411 6.99088 3.19581C6.89917 3.28752 6.84765 3.4119 6.84765 3.54159C6.84765 3.67128 6.89917 3.79566 6.99088 3.88736C7.08258 3.97907 7.20696 4.03059 7.33665 4.03059ZM8.53815 5.86309C8.40846 5.86309 8.28408 5.91461 8.19238 6.00631C8.10067 6.09802 8.04915 6.2224 8.04915 6.35209C8.04915 6.48178 8.10067 6.60616 8.19238 6.69786C8.28408 6.78957 8.40846 6.84109 8.53815 6.84109H9.17515C9.30485 6.84109 9.42922 6.78957 9.52093 6.69786C9.61263 6.60616 9.66415 6.48178 9.66415 6.35209C9.66415 6.2224 9.61263 6.09802 9.52093 6.00631C9.42922 5.91461 9.30485 5.86309 9.17515 5.86309H8.53815ZM2.48215 6.94909H6.15865C6.28557 6.94503 6.40594 6.89175 6.49428 6.80054C6.58262 6.70932 6.63202 6.58732 6.63202 6.46034C6.63202 6.33335 6.58262 6.21135 6.49428 6.12013C6.40594 6.02892 6.28557 5.97565 6.15865 5.97159H2.48215C2.35524 5.97565 2.23487 6.02892 2.14653 6.12013C2.05819 6.21135 2.00879 6.33335 2.00879 6.46034C2.00879 6.58732 2.05819 6.70932 2.14653 6.80054C2.23487 6.89175 2.35524 6.94503 2.48215 6.94909ZM3.11915 28.0701H2.48215C2.35629 28.0758 2.23747 28.1298 2.15041 28.2209C2.06336 28.3119 2.01477 28.4331 2.01477 28.5591C2.01477 28.6851 2.06336 28.8062 2.15041 28.8973C2.23747 28.9884 2.35629 29.0424 2.48215 29.0481H3.11915C3.24885 29.0481 3.37322 28.9966 3.46493 28.9049C3.55664 28.8132 3.60815 28.6888 3.60815 28.5591C3.60815 28.4294 3.55664 28.305 3.46493 28.2133C3.37322 28.1216 3.24885 28.0701 3.11915 28.0701ZM9.17515 27.9616H5.49865C5.36896 27.9616 5.24458 28.0131 5.15288 28.1048C5.06117 28.1965 5.00965 28.3209 5.00965 28.4506C5.00965 28.5803 5.06117 28.7047 5.15288 28.7964C5.24458 28.8881 5.36896 28.9396 5.49865 28.9396H9.17515C9.30485 28.9396 9.42922 28.8881 9.52093 28.7964C9.61263 28.7047 9.66415 28.5803 9.66415 28.4506C9.66415 28.3209 9.61263 28.1965 9.52093 28.1048C9.42922 28.0131 9.30485 27.9616 9.17515 27.9616ZM11.0137 25.1516H10.3767C10.2497 25.1556 10.1294 25.2089 10.041 25.3001C9.95269 25.3913 9.90329 25.5134 9.90329 25.6403C9.90329 25.7673 9.95269 25.8893 10.041 25.9805C10.1294 26.0718 10.2497 26.125 10.3767 26.1291H11.0137C11.1406 26.125 11.2609 26.0718 11.3493 25.9805C11.4376 25.8893 11.487 25.7673 11.487 25.6403C11.487 25.5134 11.4376 25.3913 11.3493 25.3001C11.2609 25.2089 11.1406 25.1556 11.0137 25.1516ZM8.48565 25.5321C8.48565 25.4025 8.4342 25.2782 8.34261 25.1865C8.25101 25.0948 8.12676 25.0432 7.99715 25.0431H4.32015C4.25466 25.041 4.1894 25.0521 4.12828 25.0757C4.06715 25.0993 4.01139 25.135 3.96432 25.1806C3.91724 25.2262 3.87981 25.2808 3.85425 25.3411C3.82869 25.4014 3.81552 25.4663 3.81552 25.5318C3.81552 25.5974 3.82869 25.6622 3.85425 25.7226C3.87981 25.7829 3.91724 25.8375 3.96432 25.8831C4.01139 25.9287 4.06715 25.9644 4.12828 25.988C4.1894 26.0116 4.25466 26.0227 4.32015 26.0206H7.99715C8.12667 26.0205 8.25085 25.9689 8.34243 25.8774C8.43401 25.7858 8.48552 25.6616 8.48565 25.5321Z" fill="black"/>
</svg>
