<svg width="32" height="32" viewBox="0 0 32 32" fill="none" xmlns="http://www.w3.org/2000/svg">
<path d="M4.5649 28.8802C4.3367 28.9636 4.08945 28.98 3.85225 28.9275C3.61504 28.8751 3.39776 28.7559 3.22598 28.5842C3.0542 28.4124 2.93507 28.1951 2.88261 27.9579C2.83016 27.7207 2.84657 27.4734 2.9299 27.2452L8.0649 13.2452C8.13753 13.0438 8.25992 12.864 8.42069 12.7225C8.58145 12.5811 8.77538 12.4826 8.98443 12.4362C9.19348 12.3898 9.41087 12.397 9.61638 12.4571C9.8219 12.5173 10.0089 12.6284 10.1599 12.7802L19.0549 21.6502C19.2053 21.8024 19.3152 21.9898 19.3745 22.1953C19.4338 22.4009 19.4406 22.618 19.3944 22.8269C19.3481 23.0358 19.2503 23.2297 19.1097 23.391C18.9692 23.5523 18.7905 23.6758 18.5899 23.7502L4.5649 28.8802ZM15.2249 12.8802C18.7249 7.82523 14.5649 3.98023 14.5249 3.94523C14.475 3.90255 14.4172 3.87011 14.3547 3.84978C14.2923 3.82944 14.2265 3.8216 14.161 3.82671C14.0955 3.83182 14.0317 3.84977 13.9732 3.87954C13.9147 3.90932 13.8626 3.95033 13.8199 4.00023C13.7749 4.04866 13.74 4.10553 13.7172 4.16754C13.6943 4.22954 13.684 4.29546 13.6868 4.36149C13.6896 4.42751 13.7055 4.49233 13.7334 4.55219C13.7614 4.61204 13.801 4.66576 13.8499 4.71023C13.9949 4.84023 17.3749 8.01523 14.3999 12.3402C14.3477 12.4155 14.3171 12.5037 14.3116 12.5952C14.3061 12.6867 14.3258 12.7779 14.3687 12.8589C14.4115 12.94 14.4758 13.0076 14.5545 13.0546C14.6332 13.1016 14.7233 13.126 14.8149 13.1252C14.8973 13.1229 14.9779 13.1002 15.0494 13.0592C15.1209 13.0182 15.1812 12.9602 15.2249 12.8902V12.8802ZM27.9399 18.6852C27.9868 18.6387 28.024 18.5834 28.0493 18.5225C28.0747 18.4616 28.0878 18.3962 28.0878 18.3302C28.0878 18.2642 28.0747 18.1989 28.0493 18.1379C28.024 18.077 27.9868 18.0217 27.9399 17.9752C27.8999 17.9352 23.9399 13.8902 18.9849 17.4752C18.8834 17.555 18.8168 17.6709 18.7988 17.7988C18.7809 17.9266 18.8131 18.0564 18.8886 18.161C18.9642 18.2656 19.0773 18.337 19.2043 18.3601C19.3313 18.3833 19.4623 18.3565 19.5699 18.2852C23.8299 15.2152 27.0699 18.5202 27.2149 18.6602C27.2614 18.709 27.3172 18.7478 27.3791 18.7745C27.4409 18.8011 27.5075 18.815 27.5749 18.8152C27.6413 18.8189 27.7078 18.8093 27.7705 18.787C27.8332 18.7647 27.8908 18.7301 27.9399 18.6852ZM22.1349 11.5402C22.1349 11.3424 22.0763 11.1491 21.9664 10.9847C21.8565 10.8202 21.7003 10.692 21.5176 10.6164C21.3349 10.5407 21.1338 10.5209 20.9398 10.5594C20.7458 10.598 20.5676 10.6933 20.4278 10.8331C20.2879 10.973 20.1927 11.1512 20.1541 11.3451C20.1155 11.5391 20.1353 11.7402 20.211 11.9229C20.2867 12.1056 20.4149 12.2618 20.5793 12.3717C20.7438 12.4816 20.9371 12.5402 21.1349 12.5402C21.4001 12.5402 21.6545 12.4349 21.842 12.2473C22.0295 12.0598 22.1349 11.8054 22.1349 11.5402ZM24.4749 5.36023C24.4749 5.16245 24.4163 4.96911 24.3064 4.80466C24.1965 4.64021 24.0403 4.51204 23.8576 4.43635C23.6749 4.36066 23.4738 4.34086 23.2798 4.37945C23.0858 4.41803 22.9076 4.51327 22.7678 4.65312C22.6279 4.79298 22.5327 4.97116 22.4941 5.16514C22.4555 5.35912 22.4753 5.56019 22.551 5.74291C22.6267 5.92564 22.7549 6.08182 22.9193 6.1917C23.0838 6.30158 23.2771 6.36023 23.4749 6.36023C23.7349 6.35636 23.9832 6.25134 24.1671 6.06745C24.351 5.88356 24.456 5.63526 24.4599 5.37523L24.4749 5.36023ZM23.4749 5.36023C23.4749 5.36023 23.4549 5.39023 23.4499 5.39023L23.4749 5.36023ZM24.9999 20.5002C24.9999 20.3024 24.9413 20.1091 24.8314 19.9447C24.7215 19.7802 24.5653 19.652 24.3826 19.5764C24.1999 19.5007 23.9988 19.4809 23.8048 19.5194C23.6108 19.558 23.4326 19.6533 23.2928 19.7931C23.1529 19.933 23.0577 20.1112 23.0191 20.3051C22.9805 20.4991 23.0003 20.7002 23.076 20.8829C23.1517 21.0656 23.2799 21.2218 23.4443 21.3317C23.6088 21.4416 23.8021 21.5002 23.9999 21.5002C24.2651 21.5002 24.5195 21.3949 24.707 21.2073C24.8945 21.0198 24.9999 20.7654 24.9999 20.5002ZM22.6999 25.2552C22.6999 25.0574 22.6413 24.8641 22.5314 24.6997C22.4215 24.5352 22.2653 24.407 22.0826 24.3313C21.8999 24.2557 21.6988 24.2359 21.5048 24.2744C21.3108 24.313 21.1326 24.4083 20.9928 24.5481C20.8529 24.688 20.7577 24.8662 20.7191 25.0601C20.6805 25.2541 20.7003 25.4552 20.776 25.6379C20.8517 25.8206 20.9799 25.9768 21.1443 26.0867C21.3088 26.1966 21.5021 26.2552 21.6999 26.2552C21.9574 26.2515 22.2035 26.1485 22.387 25.9678C22.5705 25.7872 22.6772 25.5426 22.6849 25.2852L22.6999 25.2552ZM8.0399 8.46523C8.0399 8.26745 7.98125 8.07411 7.87137 7.90966C7.76149 7.74521 7.60531 7.61704 7.42258 7.54135C7.23986 7.46566 7.03879 7.44586 6.84481 7.48445C6.65083 7.52303 6.47265 7.61827 6.33279 7.75812C6.19294 7.89798 6.0977 8.07616 6.05911 8.27014C6.02053 8.46412 6.04033 8.66519 6.11602 8.84791C6.19171 9.03064 6.31988 9.18682 6.48433 9.2967C6.64878 9.40658 6.84212 9.46523 7.0399 9.46523C7.30512 9.46523 7.55947 9.35987 7.74701 9.17234C7.93454 8.9848 8.0399 8.73045 8.0399 8.46523ZM13.5399 6.91523C13.5399 6.71745 13.4813 6.52411 13.3714 6.35966C13.2615 6.19521 13.1053 6.06704 12.9226 5.99135C12.7399 5.91566 12.5388 5.89586 12.3448 5.93444C12.1508 5.97303 11.9726 6.06827 11.8328 6.20812C11.6929 6.34798 11.5977 6.52616 11.5591 6.72014C11.5205 6.91412 11.5403 7.11519 11.616 7.29791C11.6917 7.48064 11.8199 7.63682 11.9843 7.7467C12.1488 7.85658 12.3421 7.91523 12.5399 7.91523C12.8017 7.91263 13.052 7.80749 13.2371 7.62239C13.4222 7.43729 13.5273 7.18699 13.5299 6.92523L13.5399 6.91523Z" fill="black"/>
</svg>
