<svg width="32" height="32" viewBox="0 0 32 32" fill="none" xmlns="http://www.w3.org/2000/svg">
<path d="M9.85589 22.2201H9.67339C9.54589 22.2201 9.4329 22.1606 9.3594 22.0681C9.1939 22.0351 9.0224 22.0176 8.84691 22.0176H6.61995C5.17548 22.0176 4 23.1931 4 24.6375V27.9995H11.4664V24.6375C11.4664 23.5505 10.8009 22.6161 9.85589 22.2201Z" fill="black"/>
<path d="M7.73345 21.2174C8.81701 21.2174 9.69541 20.339 9.69541 19.2554C9.69541 18.1719 8.81701 17.2935 7.73345 17.2935C6.64988 17.2935 5.77148 18.1719 5.77148 19.2554C5.77148 20.339 6.64988 21.2174 7.73345 21.2174Z" fill="black"/>
<path d="M17.1135 22.0176H14.8866C13.4421 22.0176 12.2666 23.1931 12.2666 24.6375V27.9995H19.7335V24.6375C19.7335 23.1931 18.558 22.0176 17.1135 22.0176Z" fill="black"/>
<path d="M16 21.2174C17.0836 21.2174 17.962 20.339 17.962 19.2554C17.962 18.1719 17.0836 17.2935 16 17.2935C14.9165 17.2935 14.0381 18.1719 14.0381 19.2554C14.0381 20.339 14.9165 21.2174 16 21.2174Z" fill="black"/>
<path d="M25.3796 22.0176H23.1527C21.7082 22.0176 20.5332 23.1931 20.5332 24.6375V27.9995H27.9996V24.6375C27.9996 23.1931 26.8241 22.0176 25.3796 22.0176Z" fill="black"/>
<path d="M24.2657 21.2174C25.3492 21.2174 26.2276 20.339 26.2276 19.2554C26.2276 18.1719 25.3492 17.2935 24.2657 17.2935C23.1821 17.2935 22.3037 18.1719 22.3037 19.2554C22.3037 20.339 23.1821 21.2174 24.2657 21.2174Z" fill="black"/>
<path d="M14.228 7.24894C15.1252 7.24894 15.8525 6.52164 15.8525 5.62447C15.8525 4.7273 15.1252 4 14.228 4C13.3308 4 12.6035 4.7273 12.6035 5.62447C12.6035 6.52164 13.3308 7.24894 14.228 7.24894Z" fill="black"/>
<path d="M22.4099 21.2991C21.854 20.7931 21.5045 20.0646 21.5045 19.2556C21.5045 18.7176 21.659 18.2151 21.9265 17.7901V11.0853H23.3384C23.5594 11.0853 23.7384 10.9063 23.7384 10.6853C23.7384 10.4648 23.5594 10.2853 23.3384 10.2853H22.2205V7.64882C22.2204 7.57973 22.2024 7.51183 22.1683 7.45173C22.1343 7.39163 22.0852 7.34136 22.026 7.30582L19.4955 5.78735C19.4505 5.76035 19.4005 5.74249 19.3486 5.73479C19.2967 5.72709 19.2437 5.7297 19.1928 5.74247C19.1418 5.75524 19.0939 5.77791 19.0517 5.80921C19.0096 5.8405 18.974 5.8798 18.947 5.92485C18.9199 5.96984 18.902 6.01973 18.8942 6.07167C18.8864 6.12361 18.889 6.17657 18.9017 6.22753C18.9144 6.27848 18.9371 6.32642 18.9684 6.3686C18.9996 6.41078 19.0389 6.44637 19.084 6.47334L21.4205 7.87531V10.2853H17.3715V10.2373C17.3715 9.03029 16.3896 8.04881 15.1831 8.04881H13.2741C12.0676 8.04881 11.0857 9.03029 11.0857 10.2373V10.2853H8.66171C8.44071 10.2853 8.26172 10.4648 8.26172 10.6853C8.26172 10.9063 8.44071 11.0853 8.66171 11.0853H10.0737V17.7901C10.3412 18.2151 10.4957 18.7176 10.4957 19.2556C10.4957 20.0646 10.1462 20.7931 9.59019 21.2991C9.64919 21.3121 9.70769 21.3266 9.76569 21.3431C9.77119 21.3441 9.77669 21.3456 9.78219 21.3476C9.79119 21.3496 9.80019 21.3521 9.80869 21.3556C9.89219 21.3796 9.97419 21.4071 10.0542 21.4381C10.0557 21.4386 10.0567 21.4386 10.0582 21.4396C10.0705 21.4435 10.0827 21.448 10.0947 21.4531C10.8562 21.7525 11.4852 22.3175 11.8666 23.034C12.3296 22.1645 13.1576 21.5181 14.1441 21.2991C13.5876 20.7936 13.2381 20.0646 13.2381 19.2556C13.2381 17.7326 14.4771 16.4936 16.0001 16.4936C17.523 16.4936 18.762 17.7326 18.762 19.2556C18.762 20.0646 18.4125 20.7936 17.856 21.2991C18.8425 21.5181 19.6705 22.1645 20.1335 23.034C20.5965 22.165 21.4235 21.5181 22.4099 21.2991Z" fill="black"/>
</svg>
