<svg width="32" height="32" viewBox="0 0 32 32" fill="none" xmlns="http://www.w3.org/2000/svg">
<path d="M12.2543 21.6626L12.24 23.6984L9.32025 27.7976C8.87356 28.4246 9.01985 29.2949 9.64662 29.7414C10.2736 30.1878 11.144 30.0417 11.5904 29.4147L14.7657 24.957C14.7783 24.9393 14.7898 24.9207 14.8016 24.9023L14.3002 23.7133L12.2543 21.6626ZM22.3969 9.97075L23.2914 11.4789L23.4087 11.3995C23.9395 11.0395 24.0779 10.3173 23.7178 9.7864C23.4192 9.34617 22.8716 9.17691 22.3905 9.33714C22.4281 9.54157 22.4319 9.75523 22.3969 9.97075Z" fill="black"/>
<path d="M17.5413 21.944C17.443 21.7108 17.2831 21.5088 17.0787 21.3596L12.5301 18.0403L15.5439 19.5874L17.2725 13.6469L18.0419 14.1626C18.2341 14.2914 18.4604 14.3598 18.6917 14.3591C18.9231 14.3584 19.1489 14.2886 19.3404 14.1588L21.3542 12.7927L20.2517 11.5113C19.9923 11.4686 19.7448 11.3715 19.5256 11.2264L18.6843 11.797L17.6899 11.1309C17.6307 10.9614 17.5438 10.8029 17.4329 10.6618C17.3312 10.672 17.2279 10.6774 17.1234 10.6774C16.1798 10.6774 15.3351 10.2467 14.775 9.57185L14.3773 9.45608L15.0045 10.4964L12.3416 7.34099L11.8899 3.04015C11.8228 2.40222 11.2513 1.93973 10.6135 2.00639C9.97559 2.07349 9.5126 2.64492 9.57971 3.2828L10.0687 7.9385C10.093 8.16975 10.1862 8.38838 10.3361 8.5661L13.2293 11.9946L11.7471 10.7169L9.76455 17.9939C9.66567 18.3568 9.67934 18.7411 9.80374 19.096C9.92815 19.451 10.1574 19.7597 10.4612 19.9814L15.1233 23.3834L17.5537 29.1476C17.8542 29.8602 18.6735 30.1877 19.3793 29.8901C20.0888 29.591 20.4211 28.7737 20.1221 28.0645L17.5413 21.944Z" fill="black"/>
<path d="M17.1239 5.21924C15.7945 5.21924 14.7168 6.29675 14.7168 7.62614C14.7168 8.95549 15.7945 10.0332 17.1239 10.0332C17.7304 10.0332 18.2841 9.80828 18.7075 9.4381C18.7754 8.90703 19.0602 8.45395 19.4709 8.15847C19.5107 7.98382 19.5308 7.80526 19.5308 7.62614C19.5308 6.29675 18.4533 5.21924 17.1239 5.21924ZM23.7514 13.5153L21.7094 10.0728C21.9533 9.36931 21.5199 8.62353 20.8025 8.47615C20.1409 8.34003 19.4966 8.76709 19.3612 9.42607C19.2046 10.1877 19.7918 10.9003 20.5692 10.8922L23.1795 13.9261C23.2337 13.989 23.3083 14.0308 23.3902 14.0442C23.4722 14.0576 23.5563 14.0417 23.6277 13.9994C23.6676 13.9757 23.7025 13.9444 23.7303 13.9073C23.7581 13.8701 23.7783 13.8279 23.7898 13.7829C23.8013 13.738 23.8038 13.6912 23.7972 13.6453C23.7906 13.5993 23.7751 13.5552 23.7514 13.5153Z" fill="black"/>
</svg>
