<svg width="32" height="32" viewBox="0 0 32 32" fill="none" xmlns="http://www.w3.org/2000/svg">
<path fill-rule="evenodd" clip-rule="evenodd" d="M24.4772 9.38451V16.894C24.4043 16.9038 24.3321 16.9178 24.2609 16.936L23.1643 15.0367C22.6866 14.2092 21.619 13.9232 20.7915 14.401C20.3183 14.6742 20.0223 15.1403 19.9448 15.644H19.4664C19.2277 15.644 19.033 15.8387 19.033 16.0773V17.4126C19.033 17.5737 19.1217 17.7147 19.2527 17.7894C18.5765 18.6434 17.7576 19.4238 16.9359 20.082L16.8866 19.9967L16.7541 20.0732C16.6761 20.007 16.5771 19.9706 16.4748 19.9707H15.1396C14.9009 19.9707 14.7062 20.1653 14.7062 20.404V21.2555L14.5839 21.3261C13.4956 21.9544 12.9766 23.2046 13.2142 24.3761H4.62675C3.62781 24.3761 2.81055 23.5588 2.81055 22.5599V9.38451H24.4772ZM21.1707 15.0577C20.7045 15.3268 20.5433 15.9284 20.8124 16.3945L24.8271 23.3482C25.0963 23.8143 25.6979 23.9755 26.1641 23.7064C26.6302 23.4372 26.7914 22.8357 26.5223 22.3695L22.5076 15.4159C22.2384 14.9497 21.6368 14.7885 21.1707 15.0577ZM16.6091 21.0326L14.9631 21.9829C13.963 22.5603 13.6171 23.851 14.1945 24.8511C14.7719 25.8513 16.0627 26.1971 17.0628 25.6197L18.7088 24.6694L16.6091 21.0326ZM24.6658 17.6373C25.0788 17.6147 25.4893 17.8198 25.7103 18.2025C25.9313 18.5853 25.9036 19.0433 25.6775 19.3897L24.6658 17.6373ZM19.164 25.2822L21.093 27.8786C21.222 28.0522 21.2018 28.2928 21.0415 28.4382L20.5417 28.8918C20.4524 28.9728 20.3449 29.0089 20.2248 28.998C20.1048 28.9871 20.0044 28.9333 19.9322 28.8367L17.845 26.0437L19.164 25.2822ZM17.3195 20.7464L19.3118 24.1972C20.9075 23.5617 22.4665 23.207 23.8348 23.1461L20.4912 17.3549C19.7544 18.5095 18.6677 19.6822 17.3195 20.7464ZM19.7733 24.8307L20.6107 25.9579C20.7144 25.8202 20.7014 25.6133 20.5925 25.4667L20.0443 24.7288C19.9535 24.7621 19.8631 24.796 19.7733 24.8307ZM27.2607 17.7442C27.174 17.7929 27.0716 17.8055 26.9756 17.7792C26.8797 17.753 26.7979 17.69 26.7481 17.6039C26.6982 17.5179 26.6843 17.4156 26.7093 17.3193C26.7342 17.223 26.7961 17.1405 26.8815 17.0895L28.0969 16.3878C28.1837 16.3391 28.2861 16.3264 28.382 16.3527C28.478 16.3789 28.5597 16.4419 28.6096 16.528C28.6594 16.6141 28.6734 16.7163 28.6484 16.8126C28.6234 16.9089 28.5615 16.9914 28.4761 17.0424L27.2607 17.7442ZM27.3301 20.1027C27.2295 20.1027 27.1331 20.0627 27.062 19.9916C26.9909 19.9205 26.9509 19.8241 26.9509 19.7235C26.9509 19.623 26.9909 19.5265 27.062 19.4554C27.1331 19.3843 27.2295 19.3443 27.3301 19.3443H28.8105C28.9111 19.3443 29.0075 19.3843 29.0786 19.4554C29.1497 19.5265 29.1897 19.623 29.1897 19.7235C29.1897 19.8241 29.1497 19.9205 29.0786 19.9916C29.0075 20.0627 28.9111 20.1027 28.8105 20.1027H27.3301ZM25.5304 16.2288C25.4794 16.3143 25.3968 16.3762 25.3005 16.4011C25.2042 16.4261 25.102 16.4122 25.0159 16.3623C24.9298 16.3125 24.8669 16.2307 24.8406 16.1348C24.8144 16.0388 24.827 15.9364 24.8757 15.8497L25.6159 14.5676C25.6669 14.4822 25.7494 14.4203 25.8457 14.3953C25.942 14.3703 26.0443 14.3843 26.1303 14.4341C26.2164 14.484 26.2794 14.5657 26.3056 14.6617C26.3319 14.7576 26.3193 14.8601 26.2705 14.9468L25.5304 16.2288ZM6.92104 3H8.38841C8.62707 3 8.82174 3.19467 8.82174 3.43333V6.70624C8.82174 6.9449 8.62707 7.13958 8.38841 7.13958H6.92104C6.68238 7.13958 6.4877 6.9449 6.4877 6.70624V3.43333C6.4877 3.19467 6.68238 3 6.92104 3ZM18.8993 3H20.3667C20.6053 3 20.8 3.19467 20.8 3.43333V6.70624C20.8 6.9449 20.6053 7.13958 20.3667 7.13958H18.8993C18.6607 7.13958 18.466 6.9449 18.466 6.70624V3.43333C18.466 3.19467 18.6607 3 18.8993 3ZM12.9102 3H14.3776C14.6162 3 14.8109 3.19467 14.8109 3.43333V6.70624C14.8109 6.9449 14.6162 7.13958 14.3776 7.13958H12.9102C12.6715 7.13958 12.4769 6.9449 12.4769 6.70624V3.43333C12.4769 3.19467 12.6715 3 12.9102 3ZM2.81055 8.62618H24.4772V6.90574C24.4772 5.90685 23.6599 5.08953 22.661 5.08953H21.5583V6.70624C21.5583 7.36345 21.0239 7.89791 20.3667 7.89791H18.8993C18.2421 7.89791 17.7077 7.36345 17.7077 6.70624V5.08953H15.5692V6.70624C15.5692 7.36345 15.0347 7.89791 14.3775 7.89791H12.9101C12.2529 7.89791 11.7185 7.36345 11.7185 6.70624V5.08953H9.57997V6.70624C9.57997 7.36345 9.04551 7.89791 8.3883 7.89791H6.92093C6.26372 7.89791 5.72926 7.36345 5.72926 6.70624V5.08953H4.62675C3.62787 5.08953 2.81055 5.90685 2.81055 6.90574V8.62618ZM6.0528 11.7506V13.0858C6.0528 13.3245 6.24747 13.5192 6.48613 13.5192H7.82139C8.06005 13.5192 8.25473 13.3245 8.25473 13.0858V11.7506C8.25473 11.5119 8.06005 11.3172 7.82139 11.3172H6.48613C6.24747 11.3172 6.0528 11.5119 6.0528 11.7506ZM6.0528 16.0773V17.4125C6.0528 17.6512 6.24747 17.8459 6.48613 17.8459H7.82139C8.06005 17.8459 8.25473 17.6512 8.25473 17.4125V16.0773C8.25473 15.8386 8.06005 15.644 7.82139 15.644H6.48613C6.24747 15.644 6.0528 15.8386 6.0528 16.0773ZM6.0528 20.404V21.7393C6.0528 21.9779 6.24747 22.1726 6.48613 22.1726H7.82139C8.06005 22.1726 8.25473 21.9779 8.25473 21.7393V20.404C8.25473 20.1653 8.06005 19.9707 7.82139 19.9707H6.48613C6.24747 19.9707 6.0528 20.1653 6.0528 20.404ZM10.3795 11.7506V13.0858C10.3795 13.3245 10.5742 13.5192 10.8129 13.5192H12.1481C12.3868 13.5192 12.5814 13.3245 12.5814 13.0858V11.7506C12.5814 11.5119 12.3868 11.3172 12.1481 11.3172H10.8129C10.5742 11.3172 10.3795 11.5119 10.3795 11.7506ZM10.3795 20.404V21.7393C10.3795 21.9779 10.5742 22.1726 10.8129 22.1726H12.1481C12.3868 22.1726 12.5814 21.9779 12.5814 21.7393V20.404C12.5814 20.1653 12.3868 19.9707 12.1481 19.9707H10.8129C10.5742 19.9707 10.3795 20.1653 10.3795 20.404ZM14.7063 16.0773V17.4125C14.7063 17.6512 14.901 17.8459 15.1396 17.8459H16.4749C16.7136 17.8459 16.9082 17.6512 16.9082 17.4125V16.0773C16.9082 15.8386 16.7136 15.644 16.4749 15.644H15.1396C14.9009 15.644 14.7063 15.8386 14.7063 16.0773ZM10.3795 16.0773V17.4125C10.3795 17.6512 10.5742 17.8459 10.8129 17.8459H12.1481C12.3868 17.8459 12.5814 17.6512 12.5814 17.4125V16.0773C12.5814 15.8386 12.3868 15.644 12.1481 15.644H10.8129C10.5742 15.644 10.3795 15.8386 10.3795 16.0773ZM19.033 11.7506V13.0858C19.033 13.3245 19.2277 13.5192 19.4664 13.5192H20.8016C21.0403 13.5192 21.2349 13.3245 21.2349 13.0858V11.7506C21.2349 11.5119 21.0403 11.3172 20.8016 11.3172H19.4664C19.2276 11.3172 19.033 11.5119 19.033 11.7506ZM14.7063 11.7506V13.0858C14.7063 13.3245 14.901 13.5192 15.1396 13.5192H16.4749C16.7136 13.5192 16.9082 13.3245 16.9082 13.0858V11.7506C16.9082 11.5119 16.7136 11.3172 16.4749 11.3172H15.1396C14.9009 11.3172 14.7063 11.5119 14.7063 11.7506Z" fill="black"/>
</svg>
