<svg width="448" height="429" viewBox="0 0 448 429" fill="none" xmlns="http://www.w3.org/2000/svg">
<g clip-path="url(#clip0_3_2)">
<path fill-rule="evenodd" clip-rule="evenodd" d="M-62.6249 462.481L-560 -34.6443L-559.125 -35.5186L-61.7502 461.607L-62.6249 462.481ZM-55.2014 462.481L-552.576 -34.6443L-551.702 -35.5186L-54.3267 461.607L-55.2014 462.481ZM-545.153 -34.6443L-47.7779 462.481L-46.9032 461.607L-544.278 -35.5186L-545.153 -34.6443ZM-40.3544 462.481L-537.729 -34.6443L-536.855 -35.5186L-39.4797 461.607L-40.3544 462.481ZM-530.306 -34.6443L-32.9309 462.481L-32.0562 461.607L-529.431 -35.5186L-530.306 -34.6443ZM-25.5074 462.481L-522.882 -34.6443L-522.008 -35.5186L-24.6327 461.607L-25.5074 462.481ZM-515.459 -34.6443L-18.0839 462.481L-17.2091 461.607L-514.584 -35.5186L-515.459 -34.6443ZM-10.6604 462.481L-508.035 -34.6443L-507.161 -35.5186L-9.78564 461.607L-10.6604 462.481ZM-500.612 -34.6443L-3.23687 462.481L-2.36213 461.607L-499.737 -35.5186L-500.612 -34.6443ZM4.18664 462.481L-493.188 -34.6443L-492.314 -35.5186L5.06138 461.607L4.18664 462.481ZM-485.765 -34.6443L11.6101 462.481L12.4849 461.607L-484.89 -35.5186L-485.765 -34.6443ZM19.0337 462.481L-478.341 -34.6443L-477.467 -35.5186L19.9084 461.607L19.0337 462.481ZM-470.918 -34.6443L26.4572 462.481L27.3319 461.607L-470.043 -35.5186L-470.918 -34.6443ZM33.8807 462.481L-463.494 -34.6443L-462.62 -35.5186L34.7554 461.607L33.8807 462.481ZM-456.071 -34.6443L41.3042 462.481L42.1789 461.607L-455.196 -35.5186L-456.071 -34.6443ZM48.7277 462.481L-448.647 -34.6443L-447.773 -35.5186L49.6024 461.607L48.7277 462.481ZM-441.224 -34.6443L56.1512 462.481L57.0259 461.607L-440.349 -35.5186L-441.224 -34.6443ZM63.5747 462.481L-433.8 -34.6443L-432.926 -35.5186L64.4494 461.607L63.5747 462.481ZM-426.377 -34.6443L70.9982 462.481L71.873 461.607L-425.502 -35.5186L-426.377 -34.6443ZM78.4217 462.481L-418.953 -34.6443L-418.079 -35.5186L79.2965 461.607L78.4217 462.481ZM-411.53 -34.6443L85.8452 462.481L86.72 461.607L-410.655 -35.5186L-411.53 -34.6443ZM93.2687 462.481L-404.106 -34.6443L-403.232 -35.5186L94.1435 461.607L93.2687 462.481ZM-396.683 -34.6443L100.692 462.481L101.567 461.607L-395.808 -35.5186L-396.683 -34.6443ZM108.116 462.481L-389.259 -34.6443L-388.385 -35.5186L108.991 461.607L108.116 462.481ZM-381.836 -34.6443L115.539 462.481L116.414 461.607L-380.961 -35.5186L-381.836 -34.6443ZM122.963 462.481L-374.412 -34.6443L-373.538 -35.5186L123.838 461.607L122.963 462.481ZM-366.989 -34.6443L130.386 462.481L131.261 461.607L-366.114 -35.5186L-366.989 -34.6443ZM137.81 462.481L-359.565 -34.6443L-358.691 -35.5186L138.685 461.607L137.81 462.481ZM-352.142 -34.6443L145.233 462.481L146.108 461.607L-351.267 -35.5186L-352.142 -34.6443ZM152.657 462.481L-344.718 -34.6443L-343.844 -35.5186L153.532 461.607L152.657 462.481ZM-337.295 -34.6443L160.08 462.481L160.955 461.607L-336.42 -35.5186L-337.295 -34.6443ZM167.504 462.481L-329.871 -34.6443L-328.997 -35.5186L168.379 461.607L167.504 462.481ZM-322.448 -34.6443L174.927 462.481L175.802 461.607L-321.573 -35.5186L-322.448 -34.6443ZM182.351 462.481L-315.024 -34.6443L-314.149 -35.5186L183.226 461.607L182.351 462.481ZM-307.601 -34.6443L189.774 462.481L190.649 461.607L-306.726 -35.5186L-307.601 -34.6443ZM197.198 462.481L-300.177 -34.6443L-299.302 -35.5186L198.073 461.607L197.198 462.481ZM-292.754 -34.6443L204.621 462.481L205.496 461.607L-291.879 -35.5186L-292.754 -34.6443ZM212.045 462.481L-285.33 -34.6443L-284.455 -35.5186L212.92 461.607L212.045 462.481ZM-277.907 -34.6443L219.468 462.481L220.343 461.607L-277.032 -35.5186L-277.907 -34.6443ZM226.892 462.481L-270.483 -34.6443L-269.608 -35.5186L227.767 461.607L226.892 462.481ZM-263.06 -34.6443L234.315 462.481L235.19 461.607L-262.185 -35.5186L-263.06 -34.6443ZM241.739 462.481L-255.636 -34.6443L-254.761 -35.5186L242.614 461.607L241.739 462.481ZM-248.213 -34.6443L249.162 462.481L250.037 461.607L-247.338 -35.5186L-248.213 -34.6443ZM256.586 462.481L-240.789 -34.6443L-239.914 -35.5186L257.461 461.607L256.586 462.481ZM-233.366 -34.6443L264.009 462.481L264.884 461.607L-232.491 -35.5186L-233.366 -34.6443ZM271.433 462.481L-225.942 -34.6443L-225.067 -35.5186L272.308 461.607L271.433 462.481ZM-218.519 -34.6443L278.856 462.481L279.731 461.607L-217.644 -35.5186L-218.519 -34.6443ZM286.28 462.481L-211.095 -34.6443L-210.22 -35.5186L287.155 461.607L286.28 462.481ZM-203.672 -34.6443L293.703 462.481L294.578 461.607L-202.797 -35.5186L-203.672 -34.6443ZM301.127 462.481L-196.248 -34.6443L-195.373 -35.5186L302.002 461.607L301.127 462.481ZM-188.825 -34.6443L308.55 462.481L309.425 461.607L-187.95 -35.5186L-188.825 -34.6443ZM315.974 462.481L-181.401 -34.6443L-180.526 -35.5186L316.849 461.607L315.974 462.481ZM-173.978 -34.6443L323.398 462.481L324.272 461.607L-173.103 -35.5186L-173.978 -34.6443ZM330.821 462.481L-166.554 -34.6443L-165.679 -35.5186L331.696 461.607L330.821 462.481ZM-159.131 -34.6443L338.245 462.481L339.119 461.607L-158.256 -35.5186L-159.131 -34.6443ZM345.668 462.481L-151.707 -34.6443L-150.832 -35.5186L346.543 461.607L345.668 462.481ZM-144.284 -34.6443L353.092 462.481L353.966 461.607L-143.409 -35.5186L-144.284 -34.6443ZM360.515 462.481L-136.86 -34.6443L-135.985 -35.5186L361.39 461.607L360.515 462.481ZM-129.437 -34.6443L367.939 462.481L368.813 461.607L-128.562 -35.5186L-129.437 -34.6443ZM375.362 462.481L-122.013 -34.6443L-121.138 -35.5186L376.237 461.607L375.362 462.481ZM-114.589 -34.6443L382.786 462.481L383.66 461.607L-113.715 -35.5186L-114.589 -34.6443ZM390.209 462.481L-107.166 -34.6443L-106.291 -35.5186L391.084 461.607L390.209 462.481ZM-99.7425 -34.6443L397.633 462.481L398.507 461.607L-98.8677 -35.5186L-99.7425 -34.6443ZM405.056 462.481L-92.319 -34.6443L-91.4442 -35.5186L405.931 461.607L405.056 462.481ZM-84.8955 -34.6443L412.48 462.481L413.354 461.607L-84.0207 -35.5186L-84.8955 -34.6443ZM419.903 462.481L-77.472 -34.6443L-76.5972 -35.5186L420.778 461.607L419.903 462.481ZM-70.0484 -34.6443L427.327 462.481L428.201 461.607L-69.1737 -35.5186L-70.0484 -34.6443ZM434.75 462.481L-62.6249 -34.6443L-61.7502 -35.5186L435.625 461.607L434.75 462.481ZM-55.2014 -34.6443L442.174 462.481L443.048 461.607L-54.3267 -35.5186L-55.2014 -34.6443ZM449.597 462.481L-47.7779 -34.6443L-46.9032 -35.5186L450.472 461.607L449.597 462.481ZM-40.3544 -34.6443L457.021 462.481L457.895 461.607L-39.4797 -35.5186L-40.3544 -34.6443ZM464.444 462.481L-32.9309 -34.6443L-32.0562 -35.5186L465.319 461.607L464.444 462.481ZM-25.5074 -34.6443L471.868 462.481L472.742 461.607L-24.6327 -35.5186L-25.5074 -34.6443ZM479.291 462.481L-18.0839 -34.6443L-17.2091 -35.5186L480.166 461.607L479.291 462.481ZM-10.6604 -34.6443L486.715 462.481L487.589 461.607L-9.78564 -35.5186L-10.6604 -34.6443ZM494.138 462.481L-3.23687 -34.6443L-2.36213 -35.5186L495.013 461.607L494.138 462.481ZM4.18664 -34.6443L501.562 462.481L502.436 461.607L5.06138 -35.5186L4.18664 -34.6443ZM508.985 462.481L11.6101 -34.6443L12.4849 -35.5186L509.86 461.607L508.985 462.481ZM19.0337 -34.6443L516.409 462.481L517.283 461.607L19.9084 -35.5186L19.0337 -34.6443ZM523.832 462.481L26.4572 -34.6443L27.3319 -35.5186L524.707 461.607L523.832 462.481ZM33.8807 -34.6443L531.256 462.481L532.131 461.607L34.7554 -35.5186L33.8807 -34.6443ZM538.679 462.481L41.3042 -34.6443L42.1789 -35.5186L539.554 461.607L538.679 462.481ZM48.7277 -34.6443L546.103 462.481L546.978 461.607L49.6024 -35.5186L48.7277 -34.6443ZM553.526 462.481L56.1512 -34.6443L57.0259 -35.5186L554.401 461.607L553.526 462.481ZM63.5747 -34.6443L560.95 462.481L561.825 461.607L64.4494 -35.5186L63.5747 -34.6443ZM568.373 462.481L70.9982 -34.6443L71.873 -35.5186L569.248 461.607L568.373 462.481ZM78.4217 -34.6443L575.797 462.481L576.672 461.607L79.2965 -35.5186L78.4217 -34.6443ZM583.22 462.481L85.8452 -34.6443L86.72 -35.5186L584.095 461.607L583.22 462.481ZM93.2687 -34.6443L590.644 462.481L591.519 461.607L94.1435 -35.5186L93.2687 -34.6443ZM598.067 462.481L100.692 -34.6443L101.567 -35.5186L598.942 461.607L598.067 462.481ZM108.116 -34.6443L605.491 462.481L606.366 461.607L108.991 -35.5186L108.116 -34.6443ZM612.914 462.481L115.539 -34.6443L116.414 -35.5186L613.789 461.607L612.914 462.481ZM122.963 -34.6443L620.338 462.481L621.213 461.607L123.838 -35.5186L122.963 -34.6443ZM627.761 462.481L130.386 -34.6443L131.261 -35.5186L628.636 461.607L627.761 462.481ZM137.81 -34.6443L635.185 462.481L636.06 461.607L138.685 -35.5186L137.81 -34.6443ZM642.608 462.481L145.233 -34.6443L146.108 -35.5186L643.483 461.607L642.608 462.481ZM152.657 -34.6443L650.032 462.481L650.907 461.607L153.532 -35.5186L152.657 -34.6443ZM657.455 462.481L160.08 -34.6443L160.955 -35.5186L658.33 461.607L657.455 462.481ZM167.504 -34.6443L664.879 462.481L665.754 461.607L168.379 -35.5186L167.504 -34.6443ZM672.302 462.481L174.927 -34.6443L175.802 -35.5186L673.177 461.607L672.302 462.481ZM182.351 -34.6443L679.726 462.481L680.601 461.607L183.226 -35.5186L182.351 -34.6443ZM687.149 462.481L189.774 -34.6443L190.649 -35.5186L688.024 461.607L687.149 462.481ZM197.198 -34.6443L694.573 462.481L695.448 461.607L198.073 -35.5186L197.198 -34.6443ZM701.996 462.481L204.621 -34.6443L205.496 -35.5186L702.871 461.607L701.996 462.481ZM212.045 -34.6443L709.42 462.481L710.295 461.607L212.92 -35.5186L212.045 -34.6443ZM716.843 462.481L219.468 -34.6443L220.343 -35.5186L717.718 461.607L716.843 462.481ZM226.892 -34.6443L724.267 462.481L725.142 461.607L227.767 -35.5186L226.892 -34.6443ZM731.69 462.481L234.315 -34.6443L235.19 -35.5186L732.565 461.607L731.69 462.481ZM241.739 -34.6443L739.114 462.481L739.989 461.607L242.614 -35.5186L241.739 -34.6443ZM746.537 462.481L249.162 -34.6443L250.037 -35.5186L747.412 461.607L746.537 462.481ZM256.586 -34.6443L753.961 462.481L754.836 461.607L257.461 -35.5186L256.586 -34.6443ZM761.384 462.481L264.009 -34.6443L264.884 -35.5186L762.259 461.607L761.384 462.481ZM271.433 -34.6443L768.808 462.481L769.683 461.607L272.308 -35.5186L271.433 -34.6443ZM776.232 462.481L278.856 -34.6443L279.731 -35.5186L777.106 461.607L776.232 462.481ZM286.28 -34.6443L783.655 462.481L784.53 461.607L287.155 -35.5186L286.28 -34.6443ZM791.079 462.481L293.703 -34.6443L294.578 -35.5186L791.953 461.607L791.079 462.481ZM301.127 -34.6443L798.502 462.481L799.377 461.607L302.002 -35.5186L301.127 -34.6443ZM805.926 462.481L308.55 -34.6443L309.425 -35.5186L806.8 461.607L805.926 462.481ZM315.974 -34.6443L813.349 462.481L814.224 461.607L316.849 -35.5186L315.974 -34.6443ZM820.773 462.481L323.398 -34.6443L324.272 -35.5186L821.647 461.607L820.773 462.481ZM330.821 -34.6443L828.196 462.481L829.071 461.607L331.696 -35.5186L330.821 -34.6443ZM835.62 462.481L338.245 -34.6443L339.119 -35.5186L836.494 461.607L835.62 462.481ZM345.668 -34.6443L843.043 462.481L843.918 461.607L346.543 -35.5186L345.668 -34.6443ZM850.467 462.481L353.092 -34.6443L353.966 -35.5186L851.341 461.607L850.467 462.481ZM360.515 -34.6443L857.89 462.481L858.765 461.607L361.39 -35.5186L360.515 -34.6443ZM865.314 462.481L367.939 -34.6443L368.813 -35.5186L866.188 461.607L865.314 462.481ZM375.362 -34.6443L872.737 462.481L873.612 461.607L376.237 -35.5186L375.362 -34.6443ZM880.161 462.481L382.786 -34.6443L383.66 -35.5186L881.035 461.607L880.161 462.481ZM390.209 -34.6443L887.584 462.481L888.459 461.607L391.084 -35.5186L390.209 -34.6443ZM895.008 462.481L397.633 -34.6443L398.507 -35.5186L895.882 461.607L895.008 462.481ZM405.056 -34.6443L902.431 462.481L903.306 461.607L405.931 -35.5186L405.056 -34.6443ZM909.855 462.481L412.48 -34.6443L413.354 -35.5186L910.729 461.607L909.855 462.481ZM419.903 -34.6443L917.278 462.481L918.153 461.607L420.778 -35.5186L419.903 -34.6443ZM924.702 462.481L427.327 -34.6443L428.201 -35.5186L925.576 461.607L924.702 462.481ZM434.75 -34.6443L932.125 462.481L933 461.607L435.625 -35.5186L434.75 -34.6443Z" fill="url(#paint0_linear_3_2)" fill-opacity="0.35"/>
</g>
<rect x="0.5" y="0.981445" width="447" height="427" rx="19.5" stroke="#C5ADF9" stroke-opacity="0.3"/>
<defs>
<linearGradient id="paint0_linear_3_2" x1="186.501" y1="-35.5186" x2="186.501" y2="462.481" gradientUnits="userSpaceOnUse">
<stop stop-color="#C5ADF9"/>
<stop offset="0.706" stop-color="#C5ADF9" stop-opacity="0"/>
</linearGradient>
<clipPath id="clip0_3_2">
<rect y="0.481445" width="448" height="428" rx="20" fill="white"/>
</clipPath>
</defs>
</svg>
