<svg width="40" height="40" viewBox="0 0 40 40" fill="none" xmlns="http://www.w3.org/2000/svg">
<path d="M20 4C11.1637 4 4 11.1637 4 20C4 28.8363 11.1637 36 20 36C28.8363 36 36 28.8363 36 20C36 11.1637 28.8363 4 20 4ZM29.1781 18.5087L25.0625 22.5206L26.0338 28.1875C26.0499 28.2811 26.0453 28.3771 26.0205 28.4688C25.9956 28.5604 25.951 28.6455 25.8898 28.7182C25.8286 28.7908 25.7523 28.8492 25.6662 28.8892C25.5801 28.9293 25.4862 28.95 25.3913 28.95C25.2856 28.9503 25.1815 28.9245 25.0881 28.875L20 26.1975L14.9125 28.875C14.8048 28.9317 14.6834 28.9572 14.5619 28.9485C14.4405 28.9398 14.324 28.8972 14.2255 28.8256C14.127 28.7541 14.0505 28.6564 14.0047 28.5436C13.9589 28.4308 13.9456 28.3075 13.9663 28.1875L14.9375 22.5206L10.8212 18.5087C10.7342 18.4238 10.6726 18.3163 10.6434 18.1982C10.6143 18.0801 10.6187 17.9562 10.6563 17.8405C10.6939 17.7249 10.7631 17.622 10.8561 17.5436C10.9491 17.4652 11.0621 17.4144 11.1825 17.3969L16.87 16.57L19.4144 11.4163C19.4682 11.3073 19.5515 11.2155 19.6548 11.1514C19.758 11.0872 19.8772 11.0532 19.9987 11.0532C20.1203 11.0532 20.2395 11.0872 20.3427 11.1514C20.446 11.2155 20.5293 11.3073 20.5831 11.4163L23.1275 16.57L28.815 17.3969C28.9354 17.4144 29.0484 17.4652 29.1414 17.5436C29.2344 17.622 29.3036 17.7249 29.3412 17.8405C29.3788 17.9562 29.3832 18.0801 29.3541 18.1982C29.3249 18.3163 29.2633 18.4238 29.1763 18.5087H29.1781Z" fill="#C5ADF9"/>
</svg>
