<svg width="1120" height="414" viewBox="0 0 1120 414" fill="none" xmlns="http://www.w3.org/2000/svg">
<g opacity="0.3">
<path d="M-65.5173 184.311L-19.9579 -23.5186H39.7833L-5.72552 184.081C-9.06907 199.333 -9.06907 215.129 -5.72552 230.381L39.7833 437.981H-19.9579L-65.5173 230.151C-68.8276 215.05 -68.8276 199.412 -65.5173 184.311Z" fill="#D0BAFF"/>
<path d="M35.8871 184.311L81.4465 -23.5186H141.188L95.6789 184.081C92.3353 199.333 92.3353 215.129 95.6789 230.381L141.188 437.981H81.4465L35.8871 230.151C32.5767 215.05 32.5767 199.412 35.8871 184.311Z" fill="#D0BAFF"/>
<path d="M137.291 184.311L182.85 -23.5186H242.59L197.081 184.081C193.738 199.333 193.738 215.129 197.081 230.381L242.59 437.981H182.85L137.291 230.151C133.98 215.05 133.98 199.412 137.291 184.311Z" fill="#D0BAFF"/>
<path d="M238.693 184.311L284.252 -23.5186H343.994L298.485 184.081C295.141 199.333 295.141 215.129 298.485 230.381L343.994 437.981H284.252L238.693 230.151C235.382 215.05 235.382 199.412 238.693 184.311Z" fill="#D0BAFF"/>
<path d="M340.097 184.311L385.657 -23.5186H445.398L399.888 184.081C396.545 199.333 396.545 215.129 399.888 230.381L445.398 437.981H385.657L340.097 230.151C336.787 215.05 336.787 199.412 340.097 184.311Z" fill="#D0BAFF"/>
<path d="M441.5 184.311L487.059 -23.5186H546.8L501.291 184.081C497.947 199.333 497.947 215.129 501.291 230.381L546.8 437.981H487.059L441.5 230.151C438.19 215.05 438.19 199.412 441.5 184.311ZM1185.2 184.311L1139.64 -23.5186H1079.9L1125.41 184.081C1128.75 199.333 1128.75 215.129 1125.41 230.381L1079.9 437.981H1139.64L1185.2 230.151C1188.51 215.05 1188.51 199.412 1185.2 184.311Z" fill="#D0BAFF"/>
<path d="M1083.79 184.311L1038.23 -23.5186H978.494L1024 184.081C1027.35 199.333 1027.35 215.129 1024 230.381L978.494 437.981H1038.23L1083.79 230.151C1087.1 215.05 1087.1 199.412 1083.79 184.311Z" fill="#D0BAFF"/>
<path d="M982.389 184.311L936.83 -23.5186H877.09L922.599 184.081C925.941 199.333 925.941 215.129 922.599 230.381L877.09 437.981H936.83L982.389 230.151C985.7 215.05 985.7 199.412 982.389 184.311Z" fill="#D0BAFF"/>
<path d="M880.987 184.311L835.427 -23.5186H775.686L821.195 184.081C824.539 199.333 824.539 215.129 821.195 230.381L775.686 437.981H835.427L880.987 230.151C884.297 215.05 884.297 199.412 880.987 184.311Z" fill="#D0BAFF"/>
<path d="M779.584 184.311L734.025 -23.5186H674.284L719.792 184.081C723.137 199.333 723.137 215.129 719.792 230.381L674.284 437.981H734.025L779.584 230.151C782.894 215.05 782.894 199.412 779.584 184.311Z" fill="#D0BAFF"/>
<path d="M678.18 184.311L632.621 -23.5186H572.88L618.389 184.081C621.733 199.333 621.733 215.129 618.389 230.381L572.88 437.981H632.621L678.18 230.151C681.49 215.05 681.49 199.412 678.18 184.311Z" fill="#D0BAFF"/>
</g>
</svg>
