<svg width="40" height="40" viewBox="0 0 40 40" fill="none" xmlns="http://www.w3.org/2000/svg">
<path d="M21.1936 32.3137C23.6922 29.8167 24.6031 26.1413 23.5595 22.7664L24.6804 21.6457C24.713 21.6123 24.7381 21.5723 24.7542 21.5285C24.7703 21.4847 24.777 21.438 24.7739 21.3914L24.5195 18.6309C24.5156 18.5843 24.5219 18.5373 24.538 18.4934C24.5541 18.4495 24.5796 18.4096 24.6127 18.3765C24.6457 18.3434 24.6856 18.3179 24.7295 18.3018C24.7735 18.2857 24.8204 18.2794 24.867 18.2833L27.394 18.5169C27.4405 18.5203 27.4873 18.5137 27.5311 18.4975C27.5748 18.4812 27.6146 18.4557 27.6476 18.4227C27.6806 18.3897 27.7061 18.35 27.7223 18.3062C27.7386 18.2624 27.7452 18.2157 27.7417 18.1691L27.5082 15.6422C27.5042 15.5955 27.5105 15.5485 27.5266 15.5045C27.5426 15.4606 27.5681 15.4206 27.6012 15.3875C27.6344 15.3544 27.6743 15.3289 27.7183 15.3129C27.7623 15.2968 27.8093 15.2906 27.8559 15.2946L30.3829 15.5282C30.4294 15.5317 30.4762 15.525 30.52 15.5088C30.5637 15.4926 30.6035 15.4671 30.6365 15.4341C30.6695 15.401 30.6949 15.3613 30.7111 15.3175C30.7273 15.2737 30.7339 15.227 30.7304 15.1804L30.5022 12.6432C30.4983 12.5972 30.5045 12.551 30.5203 12.5076C30.5361 12.4643 30.5612 12.4249 30.5938 12.3923C30.6264 12.3597 30.6658 12.3346 30.7091 12.3187C30.7524 12.3029 30.7987 12.2967 30.8447 12.3006L33.6206 12.5498C33.6665 12.5537 33.7126 12.5474 33.7557 12.5312C33.7988 12.5151 33.8378 12.4895 33.8698 12.4564L34.9178 11.3771C35.011 11.2791 35.063 11.1491 35.0631 11.0139L35.0528 6.05348C35.0546 5.91574 35.029 5.77902 34.9773 5.65134C34.9256 5.52366 34.8489 5.40759 34.7517 5.30994C34.6546 5.21229 34.5389 5.13503 34.4115 5.08269C34.284 5.03035 34.1475 5.00398 34.0097 5.00514L28.9196 5C28.7773 5.02694 28.6479 5.09991 28.5513 5.20766L17.276 16.4827C12.8175 15.1028 8.0159 17.1577 5.93596 21.3357C3.85584 25.5137 5.11029 30.5835 8.89898 33.3094C12.6874 36.0353 17.8931 35.6137 21.1935 32.3137L21.1936 32.3137ZM28.4681 8.25851C28.5685 8.16593 28.7 8.11452 28.8366 8.11452C28.9731 8.11452 29.1047 8.16593 29.205 8.25851C29.253 8.30394 29.2912 8.35867 29.3172 8.41935C29.3433 8.48002 29.3568 8.54538 29.3568 8.61143C29.3568 8.67748 29.3433 8.74284 29.3172 8.80352C29.2912 8.8642 29.253 8.91892 29.205 8.96436C29.1047 9.05694 28.9731 9.10834 28.8366 9.10834C28.7 9.10834 28.5685 9.05694 28.4681 8.96436C28.4202 8.91895 28.3819 8.86423 28.3558 8.80355C28.3297 8.74287 28.3162 8.6775 28.3162 8.61143C28.3162 8.54537 28.3297 8.48 28.3558 8.41931C28.3819 8.35863 28.4202 8.30392 28.4681 8.25851ZM19.0349 17.5828L27.1139 9.50387C27.1781 9.4397 27.2581 9.39356 27.3459 9.37008C27.4336 9.3466 27.5259 9.34662 27.6136 9.37012C27.7013 9.39362 27.7813 9.43978 27.8455 9.50397C27.9098 9.56815 27.956 9.64811 27.9795 9.7358C28.003 9.82356 28.0029 9.91594 27.9794 10.0037C27.9559 10.0914 27.9097 10.1714 27.8455 10.2357L19.7667 18.3143C19.7185 18.3629 19.661 18.4012 19.5977 18.4271C19.5344 18.453 19.4665 18.4659 19.3981 18.465C19.3305 18.4658 19.2635 18.4529 19.201 18.427C19.1386 18.4011 19.0821 18.3628 19.0349 18.3143C18.9868 18.2664 18.9486 18.2094 18.9226 18.1466C18.8965 18.0838 18.8831 18.0165 18.8831 17.9486C18.8831 17.8806 18.8965 17.8133 18.9226 17.7505C18.9486 17.6878 18.9868 17.6308 19.0349 17.5828L19.0349 17.5828ZM9.97548 26.4763C10.3305 26.1212 10.7829 25.8794 11.2754 25.7814C11.7679 25.6835 12.2784 25.7338 12.7423 25.926C13.2062 26.1181 13.6028 26.4435 13.8818 26.861C14.1608 27.2786 14.3097 27.7695 14.3097 28.2716C14.3097 28.7738 14.1608 29.2647 13.8818 29.6823C13.6028 30.0998 13.2062 30.4252 12.7423 30.6174C12.2784 30.8096 11.7679 30.8599 11.2754 30.7619C10.7829 30.664 10.3305 30.4222 9.97548 30.0671C8.98442 29.0754 8.98442 27.468 9.97548 26.4763Z" fill="#C5ADF9"/>
</svg>
