<svg width="205" height="205" viewBox="0 0 205 205" fill="none" xmlns="http://www.w3.org/2000/svg">
<path d="M205 102.5C205 159.109 159.109 205 102.5 205C45.8908 205 0 159.109 0 102.5C0 45.8908 45.8908 0 102.5 0C159.109 0 205 45.8908 205 102.5Z" fill="black"/>
<path d="M121.131 83.9316L84.8206 121.068L121.131 83.9316Z" fill="white"/>
<path d="M121.131 83.9316L84.8206 121.068" stroke="white" stroke-width="5.92445"/>
<path d="M121.133 121.068H81.9555H121.133Z" fill="white"/>
<path d="M121.133 121.068H81.9555" stroke="white" stroke-width="5.92445"/>
<path d="M83.8667 82.9545V124V82.9545Z" fill="white"/>
<path d="M83.8667 82.9545V124" stroke="white" stroke-width="5.92445"/>
<path d="M187.5 102.5C187.5 149.444 149.444 187.5 102.5 187.5C55.5558 187.5 17.5 149.444 17.5 102.5C17.5 55.5558 55.5558 17.5 102.5 17.5C149.444 17.5 187.5 55.5558 187.5 102.5Z" stroke="#C5ADF9" stroke-width="35"/>
<path d="M187.33 116.922L186.308 123.504L184.272 123.188L184.508 121.666C181.414 120.477 179.747 117.789 180.317 114.114C180.996 109.746 184.528 107.461 188.576 108.109C192.427 108.728 195.542 111.741 194.793 116.563C194.268 119.943 191.901 122.024 189.374 121.875L189.761 119.385C191.19 119.303 192.451 118.224 192.757 116.247C193.282 112.868 191.074 110.926 188.205 110.501C185.342 110.036 182.807 111.505 182.353 114.43C182 116.702 182.792 118.384 184.88 119.275L185.294 116.606L187.33 116.922Z" fill="black"/>
<path d="M180.986 133.214C180.625 133.094 180.347 132.98 179.866 132.778L182.052 126.212C180.629 125.802 179.566 126.46 179.067 127.959C178.726 128.984 178.847 129.698 179.416 130.267L178.721 132.355C177.159 131.539 176.557 129.484 177.265 127.359C178.193 124.569 180.552 123.436 183.417 124.39C186.245 125.331 187.485 127.684 186.588 130.378C185.748 132.902 183.472 134.041 180.986 133.214ZM183.627 126.736L182.098 131.329C183.471 131.765 184.495 131.22 184.969 129.797C185.455 128.336 184.873 127.172 183.627 126.736Z" fill="black"/>
<path d="M175.304 137.737C175.162 138.046 174.974 138.554 174.918 138.77L173.173 137.97C173.26 137.636 173.473 137.029 173.739 136.447C174.181 135.484 175.125 133.761 177.98 135.069L181.925 136.879L182.583 135.442L184.238 136.201L183.579 137.637L186.142 138.813L185.234 140.794L182.67 139.619L181.778 141.564L180.124 140.805L181.016 138.86L177.525 137.259C176.053 136.584 175.663 136.955 175.304 137.737Z" fill="black"/>
<path d="M167.281 147.141C169.129 144.479 171.652 143.967 174.231 145.758L172.919 147.647C171.424 146.609 169.927 146.836 168.935 148.265C168.068 149.513 168.164 150.603 169.199 151.321C170.07 151.926 170.798 151.823 172.225 150.891L174.281 149.543C175.844 148.485 177.403 148.448 178.865 149.463C180.738 150.763 180.97 153.165 179.464 155.333C177.879 157.617 175.4 158.135 173.231 156.63L174.543 154.74C175.808 155.619 177.01 155.431 177.9 154.149C178.653 153.065 178.528 152.053 177.657 151.448C176.869 150.901 175.955 151.094 174.478 152.065L172.613 153.278C171.017 154.313 169.497 154.329 167.936 153.245C165.965 151.876 165.695 149.424 167.281 147.141Z" fill="black"/>
<path d="M161.971 157.29C161.746 157.544 161.418 157.976 161.303 158.167L159.864 156.896C160.044 156.601 160.423 156.082 160.847 155.602C161.548 154.808 162.951 153.432 165.304 155.511L168.557 158.384L169.603 157.2L170.967 158.405L169.921 159.589L172.034 161.456L170.591 163.09L168.477 161.223L167.06 162.827L165.696 161.622L167.113 160.018L164.236 157.475C163.022 156.403 162.541 156.645 161.971 157.29Z" fill="black"/>
<path d="M155.513 160.755C157.747 158.753 160.365 159.306 162.195 161.347C164.024 163.387 164.17 166.157 162.011 168.092C161.087 168.92 159.88 169.251 158.82 168.938L159.661 169.876L158.053 171.318L151.832 164.379L153.44 162.937L154.281 163.875C154.085 162.788 154.665 161.516 155.513 160.755ZM156.57 162.414C155.185 163.655 155.423 165.269 156.491 166.46C157.559 167.651 159.137 168.063 160.522 166.821C161.788 165.687 161.706 164.068 160.571 162.802C159.437 161.536 157.836 161.279 156.57 162.414Z" fill="black"/>
<path d="M148.237 166.926L150.018 165.67L155.39 173.286L153.609 174.542L152.571 173.071C153.054 174.346 152.485 175.482 151.651 176.07C151.373 176.266 151.133 176.411 150.902 176.5L149.75 174.866C150.051 174.703 150.198 174.599 150.475 174.403C151.734 173.515 151.833 172.025 150.612 170.293L148.237 166.926Z" fill="black"/>
<path d="M141.173 173.534C140.879 173.703 140.431 174.008 140.26 174.152L139.302 172.488C139.566 172.267 140.091 171.895 140.646 171.576C141.564 171.047 143.333 170.19 144.9 172.911L147.066 176.672L148.435 175.883L149.343 177.46L147.974 178.249L149.381 180.692L147.492 181.78L146.085 179.337L144.23 180.405L143.322 178.828L145.177 177.76L143.26 174.432C142.452 173.028 141.918 173.104 141.173 173.534Z" fill="black"/>
<path d="M131.879 181.506C131.727 181.158 131.625 180.875 131.454 180.382L137.797 177.615C137.15 176.283 135.95 175.933 134.502 176.565C133.512 176.997 133.062 177.564 133.019 178.368L131.003 179.248C130.564 177.541 131.689 175.719 133.742 174.823C136.437 173.648 138.857 174.643 140.065 177.412C141.256 180.143 140.337 182.638 137.734 183.774C135.296 184.838 132.926 183.907 131.879 181.506ZM138.461 179.137L134.024 181.072C134.618 182.384 135.708 182.781 137.083 182.182C138.495 181.566 138.97 180.355 138.461 179.137Z" fill="black"/>
<path d="M123.767 186.975L125.364 192.696L123.284 193.277L119.519 179.793L121.6 179.212L121.939 180.425C122.244 179.364 123.327 178.481 124.425 178.174C127.314 177.367 129.417 179.023 130.154 181.662C130.89 184.301 129.795 186.85 127.002 187.629C125.808 187.963 124.578 187.724 123.767 186.975ZM124.638 180.129C122.847 180.629 122.345 182.181 122.776 183.722C123.206 185.263 124.438 186.331 126.23 185.831C127.867 185.374 128.511 183.886 128.054 182.248C127.597 180.611 126.276 179.672 124.638 180.129Z" fill="black"/>
<path d="M89.8682 187.606L83.2652 186.736L83.5343 184.694L85.0611 184.895C86.1784 181.774 88.8269 180.045 92.515 180.531C96.8971 181.109 99.263 184.588 98.7076 188.65C98.1783 192.514 95.2373 195.697 90.3991 195.059C87.0084 194.613 84.873 192.294 84.9643 189.764L87.4627 190.093C87.5772 191.52 88.6854 192.756 90.6682 193.017C94.0589 193.464 95.9493 191.211 96.3083 188.334C96.707 185.461 95.1806 182.96 92.2459 182.574C89.9656 182.273 88.303 183.103 87.4604 185.211L90.1373 185.564L89.8682 187.606Z" fill="black"/>
<path d="M73.6184 181.683C73.7288 181.319 73.8352 181.038 74.0246 180.552L80.6458 182.563C81.0186 181.13 80.3326 180.085 78.8208 179.626C77.7874 179.312 77.0763 179.451 76.5225 180.036L74.4175 179.396C75.1912 177.813 77.2298 177.157 79.3731 177.808C82.1862 178.663 83.3811 180.991 82.5033 183.88C81.637 186.732 79.3184 188.034 76.601 187.208C74.0559 186.435 72.8568 184.19 73.6184 181.683ZM80.1633 184.152L75.5323 182.745C75.1328 184.128 75.704 185.138 77.1393 185.574C78.6128 186.022 79.7605 185.409 80.1633 184.152Z" fill="black"/>
<path d="M68.8335 176.037C68.5213 175.902 68.0097 175.725 67.7919 175.674L68.553 173.911C68.8889 173.991 69.5003 174.19 70.0878 174.443C71.061 174.864 72.8049 175.769 71.5602 178.652L69.8397 182.636L71.2903 183.263L70.5688 184.934L69.1182 184.307L68.0003 186.896L65.9989 186.032L67.1168 183.443L65.1522 182.595L65.8736 180.924L67.8383 181.772L69.3606 178.247C70.0027 176.759 69.623 176.378 68.8335 176.037Z" fill="black"/>
<path d="M59.3341 168.264C62.0353 170.053 62.6031 172.565 60.8692 175.182L58.9517 173.912C59.9567 172.395 59.697 170.904 58.2464 169.943C56.9791 169.103 55.8923 169.223 55.1965 170.274C54.6112 171.157 54.7298 171.884 55.6937 173.29L57.0866 175.316C58.1784 176.855 58.2496 178.413 57.2667 179.897C56.0077 181.798 53.6123 182.083 51.4113 180.625C49.0935 179.09 48.5203 176.623 49.9781 174.422L51.8957 175.692C51.0453 176.976 51.2597 178.173 52.5603 179.035C53.6608 179.764 54.6699 179.616 55.2552 178.733C55.7853 177.932 55.5718 177.023 54.569 175.567L53.3153 173.73C52.2456 172.157 52.1966 170.638 53.2458 169.054C54.5711 167.053 57.0164 166.729 59.3341 168.264Z" fill="black"/>
<path d="M49.0851 163.196C48.8254 162.976 48.3872 162.658 48.1934 162.547L49.4329 161.08C49.7313 161.254 50.2588 161.621 50.7476 162.035C51.5571 162.719 52.9635 164.091 50.9364 166.489L48.1345 169.804L49.3412 170.824L48.1662 172.213L46.9596 171.193L45.139 173.347L43.4742 171.94L45.2947 169.786L43.6604 168.404L44.8354 167.015L46.4697 168.396L48.9487 165.464C49.9946 164.226 49.7419 163.751 49.0851 163.196Z" fill="black"/>
<path d="M45.4847 156.833C47.5355 159.022 47.0392 161.652 45.0394 163.525C43.0396 165.398 40.2736 165.605 38.2912 163.488C37.4435 162.583 37.0866 161.383 37.3761 160.317L36.4565 161.178L34.9799 159.602L41.7821 153.231L43.2587 154.807L42.3391 155.669C43.4217 155.449 44.7054 156.001 45.4847 156.833ZM43.85 157.925C42.5785 156.568 40.9707 156.841 39.8029 157.934C38.6352 159.028 38.2578 160.615 39.5293 161.972C40.6915 163.213 42.3084 163.096 43.5491 161.934C44.7899 160.772 45.0122 159.166 43.85 157.925Z" fill="black"/>
<path d="M39.1562 149.708L40.4514 151.462L32.9548 156.999L31.6595 155.245L33.1074 154.176C31.8436 154.687 30.6956 154.142 30.0895 153.322C29.8875 153.048 29.7373 152.811 29.6429 152.583L31.2517 151.394C31.4215 151.692 31.5284 151.836 31.7304 152.11C32.6454 153.349 34.137 153.416 35.8422 152.156L39.1562 149.708Z" fill="black"/>
<path d="M32.4201 142.85C32.244 142.56 31.93 142.119 31.7818 141.951L33.424 140.956C33.6515 141.216 34.0344 141.732 34.366 142.28C34.9151 143.186 35.8109 144.935 33.1251 146.562L29.413 148.811L30.2316 150.162L28.6749 151.105L27.8563 149.754L25.4443 151.215L24.3149 149.35L26.7269 147.889L25.6182 146.059L27.1749 145.116L28.2836 146.946L31.568 144.957C32.9537 144.117 32.8657 143.586 32.4201 142.85Z" fill="black"/>
<path d="M24.2508 133.791C24.5956 133.631 24.8762 133.523 25.3649 133.341L28.2728 139.62C29.5906 138.944 29.9131 137.737 29.2492 136.303C28.7953 135.323 28.2179 134.885 27.4132 134.861L26.4887 132.865C28.1853 132.388 30.032 133.472 30.9733 135.505C32.2087 138.172 31.2676 140.614 28.5272 141.883C25.823 143.135 23.3076 142.272 22.1141 139.695C20.9964 137.282 21.8733 134.892 24.2508 133.791ZM26.7665 140.318L24.7326 135.926C23.4343 136.549 23.0614 137.648 23.6917 139.009C24.3389 140.406 25.5603 140.855 26.7665 140.318Z" fill="black"/>
<path d="M18.5943 125.9L12.9174 127.648L12.2817 125.583L25.6617 121.463L26.2974 123.528L25.0932 123.899C26.1623 124.176 27.0742 125.235 27.4097 126.324C28.2925 129.191 26.6932 131.337 24.0745 132.143C21.4558 132.95 18.8794 131.923 18.026 129.151C17.6611 127.966 17.8667 126.731 18.5943 125.9ZM25.4614 126.589C24.914 124.812 23.3494 124.352 21.8202 124.823C20.2911 125.294 19.2562 126.554 19.8036 128.332C20.3038 129.956 21.8082 130.56 23.4329 130.06C25.0577 129.56 25.9617 128.214 25.4614 126.589Z" fill="black"/>
<path d="M16.6507 97.0242L16.9846 90.3726L19.0421 90.4759L18.9648 92.0139C22.1657 92.8755 24.1027 95.3758 23.9162 99.0911C23.6946 103.506 20.4181 106.145 16.3243 105.919C12.4302 105.703 9.01998 103.029 9.26468 98.1552C9.43618 94.7395 11.575 92.4239 14.1038 92.3105L13.9775 94.8274C12.5642 95.0568 11.4224 96.2611 11.3221 98.2585C11.1506 101.674 13.5483 103.377 16.4456 103.502C19.341 103.667 21.7104 101.944 21.8588 98.9878C21.9741 96.6907 21.0126 95.1005 18.8435 94.4309L18.7081 97.1275L16.6507 97.0242Z" fill="black"/>
<path d="M21.2315 80.2176C21.6027 80.2987 21.8915 80.3823 22.391 80.5324L20.9133 87.2928C22.372 87.5502 23.3585 86.7832 23.6959 85.2396C23.9266 84.1846 23.7311 83.4867 23.1045 82.9813L23.5743 80.832C25.2144 81.4771 26.0304 83.457 25.5521 85.6454C24.9243 88.5176 22.699 89.8941 19.7487 89.2492C16.8374 88.6129 15.3546 86.4053 15.9611 83.6308C16.5291 81.0322 18.6719 79.6581 21.2315 80.2176ZM19.2916 86.9383L20.3251 82.21C18.9141 81.922 17.9532 82.5718 17.6328 84.0372C17.304 85.5417 18.0063 86.6369 19.2916 86.9383Z" fill="black"/>
<path d="M26.3776 75.1909C26.4862 74.8687 26.6208 74.3442 26.6532 74.123L28.4726 74.7363C28.4208 75.0776 28.2733 75.7032 28.0688 76.3097C27.7302 77.3142 26.9715 79.1268 23.996 78.1238L19.8834 76.7375L19.3787 78.2347L17.654 77.6533L18.1587 76.1561L15.4864 75.2553L16.1828 73.1895L18.8551 74.0903L19.5386 72.0624L21.2633 72.6438L20.5797 74.6717L24.2185 75.8983C25.7537 76.4157 26.1029 76.0058 26.3776 75.1909Z" fill="black"/>
<path d="M33.2235 65.2145C31.669 68.0573 29.2149 68.8352 26.4599 67.3287L27.5634 65.3107C29.1602 66.1839 30.6243 65.7992 31.4591 64.2725C32.1884 62.9389 31.9773 61.866 30.8717 61.2615C29.9417 60.7529 29.228 60.9326 27.9085 62.0118L26.0074 63.5708C24.5663 64.7888 23.0194 64.9915 21.4577 64.1375C19.4572 63.0436 18.9713 60.6807 20.2379 58.3644C21.5717 55.9253 23.9811 55.1457 26.2974 56.4123L25.1939 58.4303C23.8428 57.6914 22.6677 58.0062 21.9192 59.375C21.2859 60.5331 21.5179 61.5262 22.4479 62.0347C23.2902 62.4953 24.178 62.2058 25.5439 61.0835L27.2693 59.6791C28.7454 58.4803 30.2556 58.3032 31.9226 59.2147C34.0283 60.3662 34.5573 62.7754 33.2235 65.2145Z" fill="black"/>
<path d="M37.4183 54.5228C37.6153 54.2456 37.8956 53.7823 37.9904 53.5798L39.5554 54.6922C39.4073 55.0041 39.0854 55.5605 38.7146 56.0821C38.1005 56.9461 36.8509 58.4626 34.2915 56.6434L30.7541 54.129L29.8387 55.4168L28.3553 54.3624L29.2707 53.0746L26.9721 51.4408L28.2351 49.664L30.5336 51.2977L31.7734 49.5535L33.2569 50.6079L32.0171 52.3522L35.147 54.5769C36.4674 55.5154 36.9201 55.2237 37.4183 54.5228Z" fill="black"/>
<path d="M43.4428 50.3876C41.4321 52.614 38.7701 52.3389 36.7366 50.5025C34.7031 48.666 34.2663 45.927 36.21 43.7747C37.0411 42.8545 38.2073 42.3986 39.2937 42.5982L38.3586 41.7537L39.8063 40.1506L46.7231 46.3972L45.2754 48.0003L44.3403 47.1558C44.6492 48.2162 44.2069 49.5415 43.4428 50.3876ZM42.2175 48.8498C43.4642 47.4694 43.0581 45.89 41.8706 44.8176C40.6832 43.7452 39.0706 43.5016 37.824 44.882C36.6846 46.1437 36.9361 47.7452 38.1977 48.8846C39.4594 50.024 41.0781 50.1115 42.2175 48.8498Z" fill="black"/>
<path d="M49.9879 43.4788L48.3489 44.9163L42.2036 37.9093L43.8426 36.4719L45.0294 37.8252C44.4147 36.6086 44.8611 35.419 45.628 34.7464C45.8836 34.5222 46.1073 34.3527 46.3273 34.2395L47.646 35.7432C47.364 35.9373 47.2287 36.056 46.9731 36.2801C45.8153 37.2956 45.8734 38.7875 47.2713 40.3813L49.9879 43.4788Z" fill="black"/>
<path d="M56.4902 36.0064C56.7659 35.8074 57.1803 35.4589 57.3353 35.2977L58.4591 36.8545C58.2185 37.1022 57.7347 37.5254 57.2158 37.9C56.3563 38.5204 54.6852 39.5541 52.8473 37.0081L50.3072 33.4891L49.0261 34.4139L47.9608 32.9382L49.2419 32.0134L47.5914 29.7269L49.359 28.451L51.0095 30.7375L52.7447 29.4849L53.8099 30.9606L52.0748 32.2132L54.3223 35.3267C55.2705 36.6403 55.7929 36.5098 56.4902 36.0064Z" fill="black"/>
<path d="M64.7508 27.1682C64.938 27.4989 65.0684 27.7698 65.2898 28.242L59.2679 31.6513C60.0493 32.9097 61.2788 33.1329 62.6538 32.3544C63.5936 31.8224 63.983 31.2112 63.9416 30.4072L65.856 29.3234C66.4696 30.9755 65.5391 32.9042 63.5898 34.0078C61.0314 35.4563 58.5214 34.717 57.0335 32.089C55.5653 29.4957 56.2206 26.9184 58.692 25.5192C61.0068 24.2087 63.46 24.8882 64.7508 27.1682ZM58.4501 30.2068L62.6619 27.8222C61.935 26.579 60.8099 26.2966 59.5046 27.0357C58.1645 27.7944 57.8171 29.0482 58.4501 30.2068Z" fill="black"/>
<path d="M71.9697 20.9195L69.7584 15.4065L71.7632 14.6024L76.9749 27.5961L74.9702 28.4002L74.5011 27.2308C74.3127 28.3191 73.3332 29.3154 72.2752 29.7398C69.4908 30.8566 67.2202 29.44 66.2002 26.897C65.1802 24.3539 65.991 21.7014 68.6826 20.6218C69.8335 20.1602 71.0815 20.263 71.9697 20.9195ZM71.85 27.8201C73.5763 27.1277 73.9053 25.5304 73.3097 24.0454C72.714 22.5604 71.3724 21.6332 69.6461 22.3256C68.0683 22.9585 67.5907 24.5076 68.2235 26.0854C68.8564 27.6632 70.2721 28.453 71.85 27.8201Z" fill="black"/>
<path d="M105.781 16.5351L112.439 16.7151L112.383 18.7743L110.844 18.7327C110.057 21.9526 107.602 23.947 103.883 23.8465C99.4647 23.7271 96.7506 20.5126 96.8813 16.4147C97.0067 12.5166 99.6014 9.04546 104.48 9.17729C107.898 9.26968 110.263 11.3543 110.435 13.8799L107.916 13.8118C107.654 12.4042 106.423 11.2906 104.424 11.2365C101.005 11.1441 99.3588 13.5806 99.3004 16.48C99.2021 19.3784 100.98 21.7073 103.939 21.7873C106.238 21.8494 107.805 20.8514 108.425 18.6673L105.726 18.5944L105.781 16.5351Z" fill="black"/>
<path d="M122.931 20.7393C122.859 21.1123 122.782 21.403 122.643 21.9058L115.851 20.5833C115.627 22.0475 116.416 23.0162 117.967 23.3181C119.027 23.5245 119.72 23.3131 120.211 22.6752L122.371 23.0956C121.763 24.75 119.803 25.6112 117.604 25.1831C114.718 24.6212 113.291 22.4281 113.868 19.4637C114.438 16.5387 116.611 15.0057 119.398 15.5485C122.009 16.0568 123.432 18.1676 122.931 20.7393ZM116.168 18.9539L120.919 19.8788C121.174 18.4616 120.503 17.5158 119.03 17.2291C117.519 16.9348 116.44 17.662 116.168 18.9539Z" fill="black"/>
<path d="M128.026 25.7538C128.35 25.8551 128.878 25.9778 129.1 26.0051L128.528 27.838C128.185 27.7939 127.557 27.6606 126.946 27.4699C125.934 27.1541 124.104 26.4366 125.04 23.4392L126.333 19.2962L124.824 18.8255L125.367 17.0882L126.875 17.5589L127.715 14.8669L129.796 15.5163L128.956 18.2083L130.999 18.8458L130.457 20.5831L128.414 19.9456L127.27 23.6113C126.787 25.1577 127.205 25.4976 128.026 25.7538Z" fill="black"/>
<path d="M138.21 32.3861C135.333 30.8951 134.501 28.4588 135.946 25.6711L137.988 26.7295C137.151 28.3454 137.568 29.8006 139.113 30.6013C140.462 31.3008 141.53 31.0659 142.11 29.9473C142.598 29.0062 142.402 28.2967 141.294 27.0013L139.693 25.1353C138.443 23.7216 138.207 22.1796 139.026 20.5993C140.075 18.5751 142.426 18.0368 144.77 19.2518C147.238 20.5311 148.071 22.9227 146.856 25.2665L144.814 24.2081C145.523 22.8408 145.182 21.673 143.797 20.9551C142.625 20.3476 141.638 20.6016 141.15 21.5427C140.708 22.395 141.017 23.2761 142.17 24.6168L143.612 26.3106C144.843 27.7597 145.054 29.2656 144.179 30.9524C143.075 33.0832 140.678 33.6655 138.21 32.3861Z" fill="black"/>
<path d="M149.057 36.3811C149.339 36.572 149.808 36.842 150.012 36.9324L148.935 38.5214C148.62 38.3802 148.056 38.0706 147.527 37.7113C146.649 37.1163 145.106 35.9003 146.868 33.3016L149.305 29.7099L147.997 28.823L149.019 27.3167L150.326 28.2036L151.909 25.8698L153.713 27.0935L152.13 29.4273L153.901 30.6285L152.88 32.1348L151.109 30.9335L148.953 34.1115C148.044 35.4522 148.345 35.8984 149.057 36.3811Z" fill="black"/>
<path d="M153.355 42.3446C151.085 40.383 151.302 37.7156 153.094 35.6425C154.886 33.5694 157.614 33.0729 159.809 34.9692C160.747 35.78 161.228 36.9361 161.052 38.0265L161.876 37.0732L163.51 38.4856L157.416 45.5371L155.782 44.1247L156.606 43.1714C155.552 43.5033 154.218 43.09 153.355 42.3446ZM154.866 41.086C156.273 42.3023 157.843 41.8618 158.889 40.6512C159.936 39.4407 160.144 37.8232 158.737 36.607C157.451 35.4954 155.855 35.7818 154.743 37.068C153.632 38.3542 153.58 39.9744 154.866 41.086Z" fill="black"/>
<path d="M160.421 48.7662L158.948 47.159L165.819 40.8623L167.292 42.4695L165.965 43.6856C167.168 43.0445 168.367 43.4648 169.056 44.2168C169.286 44.4675 169.46 44.6874 169.578 44.9049L168.104 46.2562C167.904 45.9785 167.782 45.8458 167.552 45.5951C166.512 44.4597 165.021 44.5504 163.458 45.9827L160.421 48.7662Z" fill="black"/>
<path d="M167.732 54.7105C167.938 54.981 168.297 55.3864 168.462 55.5372L166.934 56.7004C166.681 56.4662 166.245 55.9934 165.857 55.4842C165.215 54.6409 164.139 52.9967 166.637 51.0944L170.09 48.4651L169.133 47.2081L170.581 46.1055L171.538 47.3626L173.782 45.6542L175.103 47.3886L172.859 49.097L174.155 50.7996L172.707 51.9022L171.411 50.1996L168.356 52.5259C167.067 53.5073 167.211 54.0263 167.732 54.7105Z" fill="black"/>
<path d="M177.043 63.1895C176.717 63.384 176.449 63.5204 175.981 63.7521L172.44 57.8071C171.199 58.6161 171.003 59.8503 171.812 61.2077C172.364 62.1355 172.984 62.5113 173.787 62.4521L174.913 64.3422C173.275 64.9921 171.326 64.1045 170.179 62.1801C168.675 59.6543 169.358 57.1285 171.953 55.5829C174.513 54.0578 177.104 54.6559 178.558 57.0958C179.919 59.381 179.294 61.8487 177.043 63.1895ZM173.866 56.9575L176.343 61.1156C177.57 60.3615 177.827 59.2304 177.06 57.9417C176.271 56.6187 175.01 56.2991 173.866 56.9575Z" fill="black"/>
<path d="M183.459 70.3297L188.921 67.9953L189.77 69.9816L176.897 75.4834L176.048 73.4972L177.206 73.002C176.114 72.8381 175.096 71.8811 174.648 70.8329C173.469 68.0742 174.835 65.7725 177.354 64.6957C179.874 63.6189 182.544 64.3701 183.683 67.0368C184.171 68.177 184.096 69.4269 183.459 70.3297ZM176.558 70.3647C177.289 72.0751 178.893 72.3682 180.364 71.7394C181.836 71.1106 182.733 69.7486 182.002 68.0382C181.333 66.475 179.774 66.0322 178.211 66.7003C176.648 67.3684 175.89 68.8015 176.558 70.3647Z" fill="black"/>
<path d="M183.403 92.5444L185.376 92.519C186.263 92.5044 187.14 92.7179 187.921 93.1389C188.703 93.5599 189.363 94.1745 189.839 94.9237L190.903 96.5854C190.948 96.6411 191.009 96.6822 191.078 96.7033C191.146 96.7245 191.22 96.7248 191.288 96.7042C191.357 96.6836 191.418 96.643 191.464 96.5876C191.509 96.5322 191.538 96.4645 191.545 96.3931L191.519 94.4201C191.505 93.5326 191.718 92.6561 192.139 91.8746C192.56 91.0932 193.175 90.4328 193.924 89.9568L195.586 88.8927C195.649 88.852 195.698 88.7915 195.725 88.7205C195.751 88.6496 195.754 88.5719 195.732 88.4994C195.71 88.4268 195.665 88.3634 195.604 88.3186C195.543 88.2738 195.469 88.2502 195.393 88.2513L193.42 88.2768C192.533 88.2913 191.656 88.0779 190.875 87.6569C190.093 87.2359 189.433 86.6213 188.957 85.8721L187.893 84.2104C187.852 84.1466 187.792 84.0978 187.721 84.0714C187.65 84.045 187.572 84.0425 187.5 84.0642C187.427 84.086 187.364 84.1308 187.319 84.1919C187.274 84.2529 187.25 84.3269 187.252 84.4027L187.277 86.3757C187.292 87.2632 187.078 88.1397 186.657 88.9211C186.236 89.7026 185.622 90.363 184.872 90.839L183.211 91.9031C183.147 91.9438 183.098 92.0043 183.072 92.0752C183.045 92.1462 183.043 92.2239 183.064 92.2964C183.086 92.3689 183.131 92.4324 183.192 92.4772C183.253 92.5219 183.327 92.5455 183.403 92.5444Z" fill="black"/>
</svg>
