<svg width="40" height="40" viewBox="0 0 40 40" fill="none" xmlns="http://www.w3.org/2000/svg">
<path d="M31.7041 12.4207C31.7004 12.2145 31.6402 12.0132 31.53 11.8389C31.4198 11.6645 31.2639 11.5237 31.0792 11.4318L20.5093 6.12075C20.3513 6.04135 20.1769 6 20.0001 6C19.8233 6 19.6489 6.04135 19.4909 6.12075L8.92098 11.4318C8.73615 11.5235 8.5801 11.6642 8.46989 11.8386C8.35967 12.0131 8.29955 12.2144 8.29608 12.4207C8.24732 15.4635 8.74406 27.7312 19.6179 31.4261C19.8606 31.5089 20.1385 31.5089 20.3812 31.4261C31.2561 27.7312 31.7529 15.4635 31.7041 12.4207ZM24.8938 17.7238L23.1949 19.3796C23.116 19.4565 23.0571 19.5513 23.0231 19.6561C22.9891 19.7608 22.9811 19.8722 22.9998 19.9807L23.4013 22.3181C23.4226 22.443 23.4085 22.5713 23.3607 22.6886C23.3129 22.806 23.2333 22.9076 23.1308 22.982C23.0283 23.0564 22.907 23.1007 22.7806 23.1099C22.6543 23.119 22.5279 23.0926 22.4158 23.0337L20.3165 21.9302C20.2192 21.8789 20.1107 21.8521 20.0007 21.8521C19.8906 21.8521 19.7822 21.8789 19.6848 21.9302L17.5856 23.0337C17.4734 23.0926 17.347 23.119 17.2207 23.1099C17.0943 23.1007 16.9731 23.0564 16.8706 22.982C16.768 22.9076 16.6884 22.806 16.6406 22.6886C16.5928 22.5713 16.5787 22.443 16.6 22.3181L17.0015 19.9807C17.02 19.8722 17.012 19.7608 16.978 19.6561C16.944 19.5515 16.8851 19.4566 16.8064 19.3796L15.1075 17.7238C15.017 17.6353 14.953 17.5233 14.9228 17.4003C14.8925 17.2774 14.8973 17.1484 14.9364 17.028C14.9756 16.9076 15.0476 16.8005 15.1444 16.7189C15.2411 16.6372 15.3588 16.5842 15.4841 16.5659L17.8317 16.2245C17.9407 16.2087 18.0443 16.1666 18.1334 16.1018C18.2226 16.037 18.2945 15.9514 18.3432 15.8525L19.3934 13.7261C19.4495 13.6125 19.5363 13.5169 19.6439 13.45C19.7515 13.3832 19.8757 13.3477 20.0024 13.3477C20.1291 13.3477 20.2532 13.3832 20.3609 13.45C20.4685 13.5169 20.5553 13.6125 20.6114 13.7261L21.6616 15.8525C21.7104 15.9513 21.7824 16.0368 21.8715 16.1016C21.9606 16.1664 22.0641 16.2086 22.1731 16.2245L24.5207 16.5659C24.6457 16.5848 24.7629 16.6381 24.8593 16.72C24.9556 16.8018 25.0272 16.909 25.0659 17.0293C25.1047 17.1496 25.1091 17.2784 25.0787 17.4011C25.0483 17.5238 24.9843 17.6355 24.8938 17.7238ZM31.2902 24.0998C30.1935 26.3657 28.6908 28.4423 26.7106 30.1355L30.5689 33.9938L32.0092 30.1378L35.8776 28.6873L31.2902 24.0998ZM8.71003 24.0998L4.12256 28.6873L7.98987 30.1389L9.43019 33.9949L13.2884 30.1367C11.3094 28.4434 9.80672 26.3669 8.71003 24.0998Z" fill="#C5ADF9"/>
</svg>
