<svg width="205" height="205" viewBox="0 0 205 205" fill="none" xmlns="http://www.w3.org/2000/svg">
<path d="M205 102.5C205 159.109 159.109 205 102.5 205C45.8908 205 0 159.109 0 102.5C0 45.8908 45.8908 0 102.5 0C159.109 0 205 45.8908 205 102.5Z" fill="black"/>
<g clip-path="url(#clip0_9_78)">
<path d="M135 70H70V135H135V70Z" fill="black"/>
<path fill-rule="evenodd" clip-rule="evenodd" d="M94.6552 74.4824H105.862V76.7238H99.138V78.9652H101.379V85.6893H103.621V83.4479H105.862V85.6893H110.345V94.6548H108.103V87.9307H105.862V96.8962H103.621V99.1376H101.379V101.379H99.138V103.62H96.8966V108.103H94.6552V105.862H92.4138V101.379H96.8966V99.1376H99.138V96.8962H92.4138V99.1376H90.1724V96.8962H87.9311V94.6548H90.1724V92.4135H92.4138V90.1721H94.6552V87.9307H96.8966V94.6548H99.138V92.4135H101.379V94.6548H103.621V92.4135H101.379V90.1721H103.621V87.9307H101.379V90.1721H99.138V81.2066H96.8966V78.9652H94.6552V74.4824ZM108.103 76.7238H112.586V81.2066H110.345V83.4479H108.103V76.7238ZM103.621 78.9652H105.862V81.2066H103.621V78.9652ZM92.4138 83.4479H94.6552V85.6893H92.4138V83.4479ZM110.345 83.4479H112.586V85.6893H110.345V83.4479ZM78.9655 92.4135H83.4483V96.8962H81.2069V94.6548H78.9655V92.4135ZM112.586 92.4135H117.069V94.6548H119.31V96.8962H117.069V99.1376H114.828V94.6548H112.586V92.4135ZM119.31 92.4135H121.552V94.6548H119.31V92.4135ZM123.793 94.6548H126.035V96.8962H123.793V94.6548ZM128.276 94.6548H130.517V101.379H128.276V99.1376H126.035V96.8962H128.276V94.6548ZM110.345 96.8962H112.586V101.379H114.828V103.62H117.069V99.1376H119.31V96.8962H121.552V99.1376H123.793V101.379H121.552V103.62H119.31V105.862H114.828V108.103H117.069V110.344H110.345V108.103H112.586V103.62H105.862V105.862H108.103V108.103H105.862V110.344H103.621V108.103H101.379V105.862H103.621V99.1376H105.862V101.379H110.345V96.8962ZM76.7242 99.1376H85.6897V101.379H83.4483V105.862H78.9655V108.103H83.4483V110.344H87.9311V112.586H81.2069V110.344H74.4828V105.862H76.7242V103.62H74.4828V101.379H76.7242V99.1376ZM87.9311 99.1376H90.1724V101.379H87.9311V99.1376ZM85.6897 101.379H87.9311V103.62H90.1724V105.862H87.9311V108.103H83.4483V105.862H85.6897V101.379ZM99.138 103.62H101.379V105.862H99.138V103.62ZM121.552 103.62H126.035V105.862H121.552V103.62ZM128.276 103.62H130.517V117.069H121.552V112.586H126.035V110.344H128.276V108.103H126.035V105.862H128.276V103.62ZM87.9311 108.103H92.4138V110.344H87.9311V108.103ZM99.138 108.103H101.379V110.344H103.621V112.586H105.862V114.827H101.379V112.586H99.138V114.827H94.6552V112.586H96.8966V110.344H99.138V108.103ZM121.552 108.103H123.793V110.344H121.552V108.103ZM92.4138 110.344H94.6552V112.586H92.4138V110.344ZM105.862 110.344H110.345V121.551H108.103V123.793H112.586V130.517H110.345V126.034H105.862V128.276H103.621V123.793H101.379V121.551H103.621V117.069H105.862V119.31H108.103V112.586H105.862V110.344ZM92.4138 114.827H94.6552V117.069H92.4138V114.827ZM94.6552 117.069H99.138V119.31H96.8966V121.551H94.6552V117.069ZM126.035 119.31H130.517V121.551H126.035V119.31ZM92.4138 121.551H94.6552V126.034H92.4138V121.551ZM119.31 121.551H123.793V123.793H121.552V126.034H117.069V123.793H119.31V121.551ZM96.8966 123.793H99.138V126.034H101.379V128.276H103.621V130.517H99.138V128.276H94.6552V126.034H96.8966V123.793ZM123.793 123.793H126.035V126.034H123.793V123.793ZM128.276 123.793H130.517V128.276H128.276V123.793ZM114.828 126.034H117.069V128.276H123.793V130.517H114.828V126.034ZM105.862 128.276H108.103V130.517H105.862V128.276Z" fill="white"/>
<path fill-rule="evenodd" clip-rule="evenodd" d="M72.2413 72.2412H92.4137V92.4136H72.2413V72.2412ZM74.4827 74.4826H90.1724V90.1722H74.4827V74.4826ZM76.7241 76.724H87.931V87.9309H76.7241V76.724ZM78.9655 78.9653H85.6896V85.6895H78.9655V78.9653ZM112.586 72.2412H132.759V92.4136H112.586V72.2412ZM114.828 74.4826H130.517V90.1722H114.828V74.4826ZM117.069 76.724H128.276V87.9309H117.069V76.724ZM119.31 78.9653H126.034V85.6895H119.31V78.9653ZM72.2413 112.586H92.4137V132.758H72.2413V112.586ZM74.4827 114.827H90.1724V130.517H74.4827V114.827ZM76.7241 117.069H87.931V128.276H76.7241V117.069ZM78.9655 119.31H85.6896V126.034H78.9655V119.31ZM112.586 112.586H119.31V119.31H112.586V112.586ZM114.828 114.827H117.069V117.069H114.828V114.827Z" fill="white"/>
</g>
<path d="M187.5 102.5C187.5 149.444 149.444 187.5 102.5 187.5C55.5558 187.5 17.5 149.444 17.5 102.5C17.5 55.5558 55.5558 17.5 102.5 17.5C149.444 17.5 187.5 55.5558 187.5 102.5Z" stroke="#C5ADF9" stroke-width="35"/>
<path d="M180.403 86.5444L182.376 86.519C183.263 86.5044 184.14 86.7179 184.921 87.1389C185.703 87.5599 186.363 88.1745 186.839 88.9237L187.903 90.5854C187.948 90.6411 188.009 90.6822 188.078 90.7033C188.146 90.7245 188.219 90.7248 188.288 90.7042C188.357 90.6836 188.418 90.643 188.464 90.5876C188.509 90.5322 188.537 90.4645 188.544 90.3931L188.519 88.4201C188.504 87.5326 188.718 86.6561 189.139 85.8746C189.56 85.0932 190.174 84.4328 190.924 83.9568L192.585 82.8927C192.649 82.852 192.698 82.7915 192.724 82.7205C192.751 82.6496 192.753 82.5719 192.732 82.4994C192.71 82.4268 192.665 82.3634 192.604 82.3186C192.543 82.2738 192.469 82.2502 192.393 82.2513L190.42 82.2768C189.533 82.2913 188.656 82.0779 187.875 81.6569C187.093 81.2359 186.433 80.6213 185.957 79.8721L184.893 78.2104C184.852 78.1466 184.791 78.0978 184.72 78.0714C184.65 78.045 184.572 78.0425 184.499 78.0642C184.427 78.086 184.363 78.1308 184.319 78.1919C184.274 78.2529 184.25 78.3269 184.251 78.4027L184.277 80.3757C184.291 81.2632 184.078 82.1397 183.657 82.9212C183.236 83.7026 182.621 84.363 181.872 84.839L180.21 85.9031C180.147 85.9438 180.098 86.0043 180.071 86.0752C180.045 86.1462 180.042 86.2239 180.064 86.2964C180.086 86.3689 180.131 86.4324 180.192 86.4772C180.253 86.5219 180.327 86.5455 180.403 86.5444Z" fill="black"/>
<path d="M180.874 106.846L191.953 107.617L192.252 103.325L194.101 103.454L193.342 114.372L191.492 114.243L191.791 109.951L180.712 109.181L180.874 106.846Z" fill="black"/>
<path d="M180.149 114.319L189.173 116.005L188.766 118.181L186.59 117.774L186.58 117.828L179.732 116.549L180.149 114.319ZM184.439 117.428L186.623 117.598C187.35 117.953 187.867 118.422 188.173 119.004C188.479 119.586 188.566 120.231 188.434 120.939C188.388 121.187 188.331 121.359 188.264 121.457L186.159 121.063C186.193 121.009 186.22 120.928 186.24 120.822C186.272 120.718 186.302 120.59 186.331 120.436C186.491 119.575 186.423 118.897 186.125 118.402C185.826 117.907 185.265 117.582 184.439 117.428Z" fill="black"/>
<path d="M175.007 121.216L179.414 125.038L179.948 125.633L185.757 130.107L185.055 132.415L174.337 123.421L175.007 121.216ZM178.032 124.261L187.813 123.338L187.096 125.698L178.303 126.281L178.032 124.261Z" fill="black"/>
<path d="M174.051 134.83L185.771 140.363L184.772 142.479L173.052 136.946L174.051 134.83Z" fill="black"/>
<path d="M169.832 142.529C170.391 141.55 171.034 140.957 171.761 140.749C172.491 140.559 173.32 140.728 174.248 141.258L181.407 145.346L181.008 147.75L173.067 143.216C172.682 142.996 172.336 142.936 172.029 143.038C171.723 143.139 171.441 143.414 171.185 143.862C171.084 144.039 171.005 144.201 170.949 144.349C170.897 144.512 170.856 144.669 170.826 144.818L169.294 143.943C169.303 143.782 169.358 143.578 169.457 143.331C169.546 143.078 169.671 142.811 169.832 142.529ZM178.921 141.895L180.468 142.779L177.219 148.468L175.672 147.585L178.921 141.895Z" fill="black"/>
<path d="M161.866 153.569C162.478 152.861 163.165 152.313 163.928 151.926C164.691 151.539 165.492 151.319 166.33 151.266C167.161 151.223 167.991 151.345 168.82 151.634C169.651 151.939 170.438 152.413 171.183 153.057C172.172 153.912 172.859 154.87 173.242 155.931C173.635 157 173.722 158.083 173.504 159.179C173.288 160.293 172.771 161.321 171.955 162.266C171.124 163.228 170.177 163.892 169.114 164.259C168.053 164.643 166.965 164.718 165.851 164.484C164.736 164.25 163.684 163.706 162.695 162.851C161.95 162.207 161.375 161.496 160.97 160.717C160.556 159.948 160.315 159.144 160.245 158.307C160.168 157.479 160.266 156.659 160.539 155.848C160.811 155.037 161.254 154.278 161.866 153.569ZM163.321 154.803C162.787 155.421 162.475 156.094 162.383 156.824C162.284 157.563 162.393 158.3 162.71 159.034C163.037 159.776 163.558 160.457 164.276 161.076C164.984 161.688 165.715 162.09 166.469 162.282C167.224 162.491 167.951 162.485 168.65 162.264C169.35 162.06 169.97 161.644 170.512 161.018C171.045 160.401 171.366 159.726 171.475 158.995C171.584 158.281 171.486 157.569 171.179 156.86C170.872 156.151 170.36 155.486 169.643 154.866C168.916 154.239 168.171 153.816 167.406 153.6C166.634 153.392 165.894 153.387 165.185 153.583C164.468 153.788 163.847 154.195 163.321 154.803Z" fill="black"/>
<path d="M154.015 161.497C154.501 161.086 155.008 160.831 155.535 160.73C156.062 160.646 156.572 160.702 157.067 160.897C157.552 161.099 157.985 161.425 158.364 161.874L162.408 166.658L160.676 168.122L156.935 163.696C156.57 163.265 156.19 163.029 155.793 162.987C155.387 162.953 154.987 163.102 154.593 163.436C154.236 163.738 153.994 164.084 153.868 164.473C153.732 164.871 153.711 165.282 153.803 165.707C153.893 166.149 154.098 166.557 154.415 166.933L152.819 165.407C152.614 164.7 152.609 163.997 152.804 163.298C152.997 162.616 153.401 162.016 154.015 161.497ZM151.629 163.749L153.024 165.399L153.079 165.352L157.611 170.713L155.865 172.189L149.939 165.178L151.629 163.749Z" fill="black"/>
<path d="M144.887 168.378C145.823 167.749 146.662 167.502 147.405 167.639C148.145 167.792 148.813 168.312 149.409 169.198L154.011 176.037L152.587 178.015L147.482 170.429C147.234 170.061 146.95 169.854 146.631 169.809C146.311 169.764 145.937 169.885 145.509 170.173C145.34 170.287 145.197 170.397 145.081 170.504C144.962 170.628 144.856 170.75 144.763 170.87L143.778 169.407C143.858 169.267 143.997 169.108 144.196 168.931C144.388 168.743 144.618 168.559 144.887 168.378ZM153.314 171.842L154.309 173.32L148.873 176.978L147.878 175.5L153.314 171.842Z" fill="black"/>
<path d="M126.292 177.334L129.52 187.961L133.636 186.71L134.175 188.484L123.704 191.665L123.165 189.891L127.281 188.641L124.053 178.014L126.292 177.334Z" fill="black"/>
<path d="M118.859 179.332L120.475 188.369L118.296 188.759L117.906 186.579L117.853 186.589L116.627 179.732L118.859 179.332ZM117.47 184.445L118.083 186.548C118.008 187.354 117.752 188.003 117.316 188.495C116.88 188.988 116.308 189.297 115.599 189.424C115.351 189.468 115.17 189.477 115.055 189.448L114.678 187.34C114.741 187.353 114.826 187.35 114.932 187.331C115.04 187.324 115.171 187.306 115.325 187.279C116.187 187.125 116.797 186.82 117.155 186.366C117.513 185.912 117.617 185.272 117.47 184.445Z" fill="black"/>
<path d="M110.768 176.919L108.767 182.399L108.402 183.11L106.292 190.131L103.885 190.299L108.469 177.079L110.768 176.919ZM109.001 180.831L113.349 189.641L110.889 189.812L107.21 181.804L109.001 180.831Z" fill="black"/>
<path d="M97.2739 180.841L96.2253 193.759L93.8929 193.57L94.9415 180.652L97.2739 180.841Z" fill="black"/>
<path d="M88.6196 179.613C89.7336 179.79 90.5157 180.182 90.966 180.789C91.4025 181.405 91.5368 182.24 91.369 183.295L90.073 191.437L87.6824 191.913L89.1199 182.882C89.1897 182.444 89.123 182.099 88.92 181.848C88.7169 181.597 88.3606 181.431 87.851 181.35C87.6495 181.318 87.4699 181.301 87.3121 181.3C87.1405 181.31 86.9798 181.327 86.8301 181.351L87.1074 179.609C87.2609 179.561 87.4708 179.54 87.7372 179.545C88.0055 179.54 88.2996 179.562 88.6196 179.613ZM92.4234 187.892L92.1433 189.652L85.6728 188.622L85.9529 186.862L92.4234 187.892Z" fill="black"/>
<path d="M75.5139 176.057C76.3915 176.382 77.1452 176.835 77.7751 177.414C78.4049 177.993 78.8912 178.666 79.2338 179.433C79.5652 180.196 79.7409 181.016 79.7608 181.894C79.7654 182.779 79.5965 183.683 79.2543 184.605C78.7994 185.831 78.1421 186.81 77.2823 187.541C76.4184 188.282 75.4347 188.743 74.3314 188.923C73.2127 189.109 72.0683 188.985 70.8982 188.551C69.7056 188.109 68.7518 187.454 68.0366 186.587C67.306 185.728 66.8551 184.735 66.684 183.609C66.5128 182.483 66.6547 181.307 67.1096 180.081C67.4519 179.158 67.9168 178.371 68.5043 177.718C69.0807 177.062 69.7488 176.555 70.5088 176.197C71.2575 175.834 72.0595 175.639 72.9147 175.611C73.7699 175.582 74.6363 175.731 75.5139 176.057ZM74.8672 177.852C74.1021 177.568 73.3618 177.511 72.6461 177.681C71.9191 177.846 71.2673 178.206 70.6906 178.76C70.1098 179.325 69.6545 180.052 69.3248 180.941C68.9993 181.819 68.8786 182.644 68.9628 183.418C69.0316 184.198 69.2917 184.877 69.7432 185.454C70.1793 186.038 70.7855 186.474 71.5618 186.762C72.3269 187.046 73.0708 187.111 73.7936 186.957C74.5009 186.81 75.1331 186.468 75.6902 185.932C76.2473 185.397 76.6907 184.684 77.0204 183.796C77.3543 182.896 77.4889 182.05 77.4243 181.258C77.3484 180.462 77.0945 179.766 76.6626 179.171C76.2195 178.571 75.621 178.131 74.8672 177.852Z" fill="black"/>
<path d="M65.4311 171.53C65.9869 171.84 66.4051 172.223 66.6856 172.682C66.9499 173.145 67.0784 173.642 67.071 174.173C67.0532 174.699 66.9013 175.219 66.6154 175.732L63.5695 181.206L61.5877 180.103L64.406 175.039C64.6802 174.546 64.7668 174.106 64.6656 173.721C64.554 173.329 64.2727 173.008 63.8219 172.757C63.4129 172.529 63.0039 172.425 62.5947 172.445C62.1751 172.458 61.7829 172.583 61.4179 172.82C61.0366 173.061 60.7263 173.396 60.4871 173.826L61.3504 171.793C61.9393 171.352 62.5951 171.099 63.3178 171.034C64.0241 170.974 64.7286 171.139 65.4311 171.53ZM62.481 170.095L61.4307 171.982L61.4936 172.017L58.0802 178.151L56.0826 177.04L60.5463 169.018L62.481 170.095Z" fill="black"/>
<path d="M55.7701 165.389C56.6872 166.046 57.2114 166.746 57.343 167.49C57.4577 168.236 57.2042 169.043 56.5823 169.912L51.7816 176.614L49.4305 175.97L54.7553 168.537C55.0138 168.176 55.1084 167.837 55.0391 167.522C54.9698 167.207 54.7254 166.899 54.3059 166.598C54.1401 166.48 53.9867 166.385 53.8459 166.313C53.6884 166.245 53.5371 166.188 53.3921 166.143L54.4193 164.709C54.5783 164.734 54.7756 164.809 55.0112 164.934C55.2538 165.048 55.5067 165.2 55.7701 165.389ZM55.4692 174.495L54.4315 175.943L49.105 172.128L50.1427 170.679L55.4692 174.495Z" fill="black"/>
<path d="M40.8585 151.148L32.0471 157.909L34.6658 161.322L33.1949 162.45L26.5331 153.768L28.0041 152.639L30.6228 156.052L39.4341 149.292L40.8585 151.148Z" fill="black"/>
<path d="M36.3793 144.946L28.4927 149.644L27.3596 147.742L29.2617 146.609L29.234 146.563L35.2186 142.998L36.3793 144.946ZM31.1052 145.448L29.3538 146.764C28.5731 146.977 27.8755 146.967 27.2609 146.733C26.6463 146.498 26.1548 146.071 25.7863 145.453C25.6573 145.236 25.5858 145.07 25.5718 144.952L27.412 143.856C27.4221 143.92 27.4548 143.998 27.51 144.091C27.555 144.19 27.6174 144.306 27.6972 144.44C28.1456 145.193 28.6452 145.656 29.1962 145.831C29.7472 146.006 30.3835 145.878 31.1052 145.448Z" fill="black"/>
<path d="M35.7627 136.527L29.9293 136.588L29.135 136.497L21.8207 137L20.8153 134.807L34.8023 134.433L35.7627 136.527ZM31.4789 136.254L24.7695 143.43L23.7416 141.188L29.9371 134.921L31.4789 136.254Z" fill="black"/>
<path d="M27.4069 125.551L14.9509 129.13L14.3047 126.881L26.7607 123.302L27.4069 125.551Z" fill="black"/>
<path d="M25.51 117.111C25.7382 118.215 25.6484 119.085 25.2406 119.721C24.8186 120.347 24.0847 120.769 23.0388 120.985L14.9653 122.653L13.6742 120.585L22.6291 118.735C23.0639 118.645 23.3628 118.461 23.5258 118.182C23.6887 117.904 23.718 117.511 23.6136 117.006C23.5723 116.806 23.5241 116.633 23.4691 116.485C23.3998 116.327 23.3271 116.183 23.251 116.052L24.9785 115.695C25.0781 115.821 25.1723 116.01 25.261 116.261C25.3614 116.51 25.4444 116.793 25.51 117.111ZM19.1122 123.597L17.367 123.958L16.0413 117.541L17.7864 117.181L19.1122 123.597Z" fill="black"/>
<path d="M24.1721 103.78C24.183 104.715 24.031 105.581 23.7162 106.377C23.4014 107.173 22.9474 107.868 22.3543 108.463C21.761 109.046 21.0582 109.504 20.246 109.837C19.4217 110.159 18.5176 110.325 17.5336 110.337C16.2257 110.352 15.0766 110.089 14.0863 109.549C13.084 109.008 12.3012 108.255 11.738 107.29C11.1626 106.312 10.8677 105.2 10.8532 103.952C10.8385 102.68 11.1075 101.555 11.6602 100.576C12.2008 99.5859 12.9658 98.809 13.9554 98.2455C14.9449 97.682 16.0936 97.3927 17.4016 97.3775C18.3855 97.3661 19.2873 97.5177 20.107 97.8322C20.9266 98.1348 21.6397 98.5765 22.2465 99.1575C22.8531 99.7266 23.323 100.405 23.6562 101.193C23.9893 101.982 24.1613 102.844 24.1721 103.78ZM22.2645 103.82C22.255 103.004 22.0428 102.292 21.6277 101.685C21.2125 101.066 20.6429 100.586 19.9189 100.247C19.183 99.9071 18.341 99.7428 17.3931 99.7538C16.4571 99.7646 15.6432 99.9481 14.9513 100.304C14.2472 100.648 13.7068 101.135 13.3301 101.763C12.9412 102.38 12.7515 103.102 12.7611 103.93C12.7706 104.746 12.9769 105.463 13.3801 106.083C13.7712 106.69 14.3166 107.158 15.0165 107.486C15.7163 107.814 16.5402 107.972 17.4881 107.961C18.4481 107.95 19.2861 107.772 20.0021 107.428C20.718 107.072 21.2764 106.585 21.6773 105.969C22.0781 105.34 22.2738 104.624 22.2645 103.82Z" fill="black"/>
<path d="M24.807 92.3125C24.7142 92.9417 24.5032 93.4685 24.1737 93.893C23.8342 94.3039 23.4145 94.5999 22.9148 94.7809C22.4168 94.9501 21.8769 94.9918 21.2952 94.9061L15.0982 93.9926L15.4289 91.7488L21.163 92.5941C21.7209 92.6763 22.1625 92.6019 22.4877 92.3709C22.8146 92.1279 23.0157 91.7512 23.0909 91.2408C23.1592 90.7778 23.1118 90.3584 22.9489 89.9826C22.7877 89.5949 22.532 89.2722 22.1819 89.0144C21.8216 88.7429 21.3981 88.5714 20.9114 88.4996L23.118 88.5883C23.7391 88.9831 24.2077 89.5071 24.5238 90.1602C24.8298 90.7996 24.9242 91.5171 24.807 92.3125ZM25.1066 89.0452L22.9697 88.7302L22.9592 88.8015L16.0143 87.7778L16.3476 85.5162L25.4295 86.8549L25.1066 89.0452Z" fill="black"/>
<path d="M27.1438 80.9801C26.8529 82.07 26.3828 82.8077 25.7334 83.1933C25.0754 83.5641 24.2306 83.6119 23.1987 83.3364L15.2336 81.2103L15.0057 78.7835L23.8404 81.1417C24.2694 81.2562 24.6192 81.2253 24.8898 81.0492C25.1604 80.873 25.3622 80.5356 25.4953 80.0371C25.5479 79.84 25.5827 79.663 25.5997 79.5061C25.6083 79.3345 25.6079 79.1729 25.5987 79.0214L27.303 79.4763C27.3355 79.634 27.335 79.8451 27.3017 80.1094C27.28 80.3769 27.2274 80.6671 27.1438 80.9801ZM18.5177 83.9127L16.796 83.4531L18.4857 77.1228L20.2075 77.5824L18.5177 83.9127Z" fill="black"/>
<path d="M35.0309 62.2975L25.5957 56.4391L23.3264 60.0939L21.7513 59.116L27.5242 49.8184L29.0993 50.7964L26.83 54.4512L36.2652 60.3095L35.0309 62.2975Z" fill="black"/>
<path d="M39.4534 55.6151L32.294 49.8692L33.6798 48.1425L35.4065 49.5283L35.4403 49.4862L40.873 53.8463L39.4534 55.6151ZM37.1389 50.8494L35.2938 49.6686C34.8207 49.012 34.5865 48.3547 34.5913 47.6969C34.5961 47.0391 34.8238 46.4295 35.2745 45.868C35.4322 45.6714 35.5636 45.5461 35.6686 45.4919L37.3391 46.8326C37.2829 46.8644 37.2209 46.9224 37.1533 47.0066C37.0764 47.0833 36.9891 47.1825 36.8914 47.3042C36.3431 47.9874 36.0835 48.6176 36.1126 49.1948C36.1417 49.7721 36.4838 50.3236 37.1389 50.8494Z" fill="black"/>
<path d="M47.0748 52.1295L44.9676 46.6896L44.7739 45.9139L41.7331 39.2427L43.4325 37.531L48.698 50.4945L47.0748 52.1295ZM45.8253 48.0229L36.7493 44.263L38.4866 42.5129L46.5311 46.1112L45.8253 48.0229Z" fill="black"/>
<path d="M54.1757 40.6004L46.3998 30.2323L48.2718 28.8284L56.0477 39.1964L54.1757 40.6004Z" fill="black"/>
<path d="M61.4609 35.7605C60.5092 36.3661 59.6639 36.591 58.9248 36.4355C58.1895 36.2633 57.5351 35.7267 56.9618 34.8256L52.5363 27.8702L54.0108 25.9292L58.9195 33.644C59.1578 34.0186 59.4362 34.2326 59.7547 34.286C60.0731 34.3394 60.45 34.2276 60.8854 33.9506C61.0575 33.8411 61.2029 33.7344 61.3216 33.6304C61.444 33.5098 61.5531 33.3906 61.6488 33.2728L62.5958 34.7611C62.5129 34.8992 62.3698 35.0542 62.1664 35.2263C61.9694 35.4085 61.7343 35.5866 61.4609 35.7605ZM53.1255 32.0822L52.1689 30.5788L57.6968 27.0615L58.6534 28.565L53.1255 32.0822Z" fill="black"/>
<path d="M73.6674 29.6492C72.7948 29.9879 71.9308 30.1495 71.0752 30.134C70.2196 30.1185 69.4092 29.9375 68.644 29.5909C67.8899 29.2399 67.2142 28.7427 66.6169 28.0992C66.0265 27.4402 65.5532 26.652 65.1972 25.7347C64.724 24.5153 64.5666 23.3471 64.7252 22.23C64.8794 21.1018 65.3097 20.1045 66.0162 19.2382C66.7294 18.3564 67.6678 17.6897 68.8312 17.2382C70.0171 16.778 71.1651 16.6349 72.2753 16.809C73.3923 16.9676 74.3884 17.4113 75.2633 18.1401C76.1383 18.8688 76.8124 19.8429 77.2857 21.0623C77.6417 21.9797 77.8163 22.8773 77.8095 23.7552C77.8139 24.6288 77.6505 25.4517 77.3195 26.2238C76.9996 26.9915 76.5291 27.6697 75.908 28.2583C75.2869 28.8469 74.54 29.3106 73.6674 29.6492ZM72.9603 27.877C73.721 27.5818 74.3128 27.1333 74.7357 26.5315C75.1698 25.9253 75.4189 25.2237 75.4828 24.4266C75.5423 23.6183 75.4006 22.7722 75.0576 21.8884C74.719 21.0159 74.2615 20.3181 73.6853 19.7952C73.1159 19.2567 72.4708 18.9214 71.7502 18.7892C71.0363 18.6414 70.2935 18.7173 69.5216 19.0169C68.7609 19.3122 68.1613 19.7573 67.7228 20.3522C67.2912 20.9316 67.0447 21.6065 66.9833 22.377C66.9219 23.1474 67.0627 23.9745 67.4057 24.8582C67.7531 25.7532 68.2136 26.4755 68.7874 27.0251C69.3723 27.5705 70.0238 27.9226 70.742 28.0815C71.4713 28.2361 72.2108 28.1679 72.9603 27.877Z" fill="black"/>
<path d="M84.2092 26.308C83.5879 26.4438 83.0204 26.4327 82.5069 26.2748C82.0024 26.1025 81.5772 25.8147 81.231 25.4113C80.8966 25.0053 80.6667 24.5151 80.5411 23.9407L79.2035 17.8212L81.4192 17.3369L82.6569 22.9992C82.7773 23.5502 83.0031 23.9369 83.3342 24.1593C83.6771 24.3792 84.1005 24.434 84.6046 24.3238C85.0618 24.2239 85.4374 24.0312 85.7312 23.7459C86.0368 23.458 86.2482 23.1047 86.3655 22.686C86.492 22.253 86.5027 21.7962 86.3976 21.3155L87.0951 23.4109C86.9456 24.1315 86.6213 24.7551 86.1222 25.2818C85.6323 25.7943 84.9947 26.1363 84.2092 26.308ZM87.3712 25.4326L86.91 23.3224L86.8396 23.3378L85.3406 16.4797L87.5739 15.9916L89.5342 24.9598L87.3712 25.4326Z" fill="black"/>
<path d="M95.2532 24.5031C94.1313 24.6203 93.2744 24.4444 92.6825 23.9754C92.1012 23.4932 91.7551 22.721 91.6441 21.6587L90.7875 13.4594L92.9732 12.3804L93.9234 21.4749C93.9695 21.9165 94.1231 22.2323 94.3843 22.4221C94.6454 22.612 95.0326 22.6802 95.5458 22.6266C95.7487 22.6054 95.9265 22.5747 96.0791 22.5346C96.2425 22.4814 96.3933 22.4234 96.5315 22.3607L96.7148 24.1152C96.5791 24.2017 96.3818 24.2766 96.123 24.3399C95.8654 24.415 95.5755 24.4695 95.2532 24.5031ZM89.4352 17.4917L89.25 15.7193L95.7666 15.0386L95.9517 16.8109L89.4352 17.4917Z" fill="black"/>
<path d="M116.62 25.2591L118.784 14.366L114.565 13.5277L114.926 11.7092L125.66 13.8418L125.299 15.6602L121.079 14.8219L118.915 25.715L116.62 25.2591Z" fill="black"/>
<path d="M123.893 26.8956L126.726 18.1639L128.832 18.8473L128.149 20.9532L128.2 20.9699L126.05 27.5957L123.893 26.8956ZM127.528 23.0415L127.978 20.8976C128.424 20.2224 128.955 19.7704 129.572 19.5416C130.189 19.3128 130.84 19.3096 131.524 19.5318C131.764 19.6096 131.928 19.688 132.016 19.767L131.355 21.8044C131.305 21.763 131.229 21.7257 131.126 21.6923C131.027 21.6476 130.903 21.6011 130.755 21.553C129.922 21.2826 129.24 21.2633 128.711 21.4952C128.181 21.7271 127.787 22.2425 127.528 23.0415Z" fill="black"/>
<path d="M130.117 32.8795L134.469 28.9944L135.127 28.5403L140.303 23.3483L142.503 24.3374L132.218 33.8243L130.117 32.8795ZM133.522 30.266L133.851 20.4475L136.1 21.4587L135.56 30.2547L133.522 30.266Z" fill="black"/>
<path d="M143.551 35.57L150.548 24.6613L152.518 25.9247L145.521 36.8334L143.551 35.57Z" fill="black"/>
<path d="M150.639 40.7185C149.739 40.0384 149.233 39.3249 149.121 38.5781C149.025 37.829 149.299 37.0284 149.943 36.1763L154.913 29.5992L157.247 30.3025L151.734 37.5976C151.467 37.9519 151.363 38.2875 151.425 38.6045C151.486 38.9215 151.722 39.2356 152.134 39.5467C152.297 39.6697 152.448 39.7687 152.587 39.8436C152.742 39.9161 152.892 39.9767 153.036 40.0252L151.972 41.4325C151.814 41.4032 151.619 41.3232 151.386 41.1928C151.147 41.0719 150.898 40.9138 150.639 40.7185ZM151.173 31.6232L152.247 30.2015L157.474 34.1517L156.4 35.5734L151.173 31.6232Z" fill="black"/>
<path d="M160.476 49.8593C159.851 49.1624 159.395 48.4109 159.108 47.6049C158.82 46.7989 158.704 45.9768 158.758 45.1384C158.82 44.309 159.047 43.5013 159.438 42.7154C159.847 41.9304 160.417 41.2094 161.15 40.5526C162.124 39.6795 163.161 39.12 164.262 38.8741C165.372 38.6203 166.457 38.671 167.517 39.0262C168.594 39.3824 169.549 40.0251 170.382 40.9544C171.231 41.9015 171.77 42.9251 171.999 44.0254C172.245 45.1265 172.181 46.215 171.808 47.2909C171.435 48.3668 170.762 49.3413 169.788 50.2144C169.055 50.8712 168.277 51.3514 167.453 51.6548C166.637 51.9672 165.809 52.1048 164.97 52.0675C164.139 52.0391 163.338 51.8382 162.568 51.4648C161.798 51.0914 161.101 50.5562 160.476 49.8593ZM161.885 48.5722C162.43 49.1798 163.058 49.5753 163.77 49.7586C164.491 49.9509 165.235 49.9362 166.004 49.7147C166.781 49.4852 167.523 49.054 168.228 48.4212C168.925 47.7964 169.417 47.1222 169.703 46.3984C170.006 45.6756 170.092 44.9538 169.961 44.2328C169.847 43.5128 169.514 42.8445 168.961 42.228C168.417 41.6204 167.789 41.2165 167.077 41.0162C166.383 40.8169 165.664 40.8244 164.922 41.0388C164.179 41.2533 163.455 41.6769 162.749 42.3097C162.034 42.9505 161.521 43.6363 161.209 44.3671C160.906 45.1069 160.806 45.8408 160.911 46.5688C161.024 47.3058 161.348 47.9736 161.885 48.5722Z" fill="black"/>
<path d="M167.352 58.5762C167.005 58.0434 166.814 57.5088 166.779 56.9726C166.762 56.4399 166.88 55.9402 167.134 55.4735C167.395 55.0169 167.772 54.6281 168.265 54.307L173.512 50.8864L174.751 52.7864L169.895 55.9514C169.423 56.2594 169.141 56.6076 169.051 56.9961C168.967 57.3946 169.066 57.81 169.347 58.2423C169.603 58.6344 169.916 58.9172 170.287 59.0908C170.665 59.2744 171.07 59.3468 171.503 59.3081C171.953 59.2728 172.384 59.1208 172.796 58.8521L171.084 60.2473C170.357 60.363 169.659 60.2808 168.99 60.001C168.337 59.7247 167.791 59.2497 167.352 58.5762ZM169.292 61.2223L171.101 60.0428L171.062 59.9825L176.943 56.1491L178.191 58.0641L170.501 63.0771L169.292 61.2223Z" fill="black"/>
<path d="M173.164 68.6935C172.66 67.6844 172.523 66.8204 172.754 66.1013C173.001 65.3876 173.602 64.7921 174.558 64.3147L181.932 60.6297L183.711 62.2965L175.531 66.3838C175.134 66.5822 174.892 66.8371 174.806 67.1483C174.72 67.4596 174.793 67.846 175.023 68.3075C175.115 68.49 175.206 68.6457 175.297 68.7745C175.404 68.9087 175.512 69.0295 175.619 69.1368L174.041 69.9253C173.912 69.8287 173.773 69.6703 173.622 69.4503C173.462 69.2356 173.309 68.9833 173.164 68.6935ZM177.682 60.7816L179.276 59.9851L182.204 65.8461L180.61 66.6426L177.682 60.7816Z" fill="black"/>
<defs>
<clipPath id="clip0_9_78">
<rect width="65" height="65" fill="white" transform="translate(70 70)"/>
</clipPath>
</defs>
</svg>
