<svg width="40" height="40" viewBox="0 0 40 40" fill="none" xmlns="http://www.w3.org/2000/svg">
<path fill-rule="evenodd" clip-rule="evenodd" d="M27.1602 24.8351V34.2165C27.1602 34.4242 27.0777 34.6234 26.9308 34.7702C26.784 34.9171 26.5848 34.9996 26.3771 34.9996H13.211C12.7785 34.9996 12.4279 34.649 12.4279 34.2165V31.8121H18.0397V32.3864C18.0397 33.2418 18.733 33.9351 19.5883 33.9351C20.4436 33.9351 21.1369 33.2418 21.1369 32.3864V26.2555C21.5543 26.1565 21.9262 25.9196 22.1923 25.5831C22.4584 25.2466 22.6031 24.8301 22.6032 24.4011V21.9751C22.6032 20.31 21.2534 18.9602 19.5883 18.9602C17.9232 18.9602 16.5734 20.31 16.5734 21.9751V24.4011C16.5734 24.8301 16.7181 25.2466 16.9842 25.5832C17.2504 25.9197 17.6222 26.1566 18.0397 26.2555V27.1977H13.8942V24.8351C13.8942 24.5937 13.6981 24.3976 13.4567 24.3976C13.2152 24.3976 13.0192 24.5937 13.0192 24.8351V27.6352C13.0192 27.7512 13.0653 27.8625 13.1474 27.9446C13.2294 28.0266 13.3407 28.0727 13.4567 28.0727H18.0397V30.9372H12.4279V30.9123H11.1591C10.6989 30.9123 10.2575 30.7295 9.93208 30.404C9.60665 30.0786 9.42383 29.6372 9.42383 29.177V24.136C9.42383 23.0191 9.8675 21.948 10.6572 21.1582C11.4345 20.381 12.2852 19.8386 13.3513 19.6192C13.9803 18.8263 14.9147 18.3331 16.1041 18.3331H23.484C24.7851 18.3331 26.0589 18.5694 26.8313 19.4964C27.8178 19.5802 28.637 20.3633 29.3424 21.0686C30.1321 21.8584 30.5758 22.9295 30.5758 24.0464V32.7144C30.5758 32.9221 30.4933 33.1213 30.3464 33.2682C30.1996 33.4151 30.0004 33.4976 29.7927 33.4976H28.0352V24.8351C28.0352 24.5937 27.8391 24.3976 27.5977 24.3976C27.3562 24.3976 27.1602 24.5937 27.1602 24.8351ZM20.2619 26.3068V32.3864C20.2619 32.7585 19.9603 33.0601 19.5883 33.0601C19.2163 33.0601 18.9147 32.7585 18.9147 32.3864V26.3068H20.2619ZM19.7941 5C23.1818 5 25.9323 7.75046 25.9323 11.1382C25.9323 14.5261 23.1818 17.2765 19.7941 17.2765C16.4062 17.2765 13.6558 14.5261 13.6558 11.1382C13.6558 7.75046 16.4062 5 19.7941 5ZM17.4484 22.8951V21.9751C17.4484 20.7932 18.4065 19.8352 19.5883 19.8352C20.7701 19.8352 21.7282 20.7932 21.7282 21.9751V22.8951H17.4484ZM21.7282 23.7701V24.4011C21.7282 24.5365 21.7015 24.6705 21.6497 24.7956C21.598 24.9206 21.522 25.0343 21.4263 25.13C21.3306 25.2257 21.217 25.3016 21.0919 25.3534C20.9669 25.4052 20.8328 25.4319 20.6975 25.4319H18.4791C18.3437 25.4319 18.2097 25.4052 18.0846 25.3534C17.9596 25.3016 17.846 25.2257 17.7502 25.13C17.6545 25.0343 17.5786 24.9206 17.5268 24.7956C17.475 24.6705 17.4484 24.5365 17.4484 24.4011V23.7701H21.7282Z" fill="#C5ADF9"/>
</svg>
