<svg width="40" height="40" viewBox="0 0 40 40" fill="none" xmlns="http://www.w3.org/2000/svg">
<path fill-rule="evenodd" clip-rule="evenodd" d="M30.625 32.75V7.25C30.6251 6.69184 30.5153 6.13913 30.3018 5.62343C30.0882 5.10773 29.7752 4.63916 29.3805 4.24449C28.9858 3.84981 28.5173 3.53676 28.0016 3.32323C27.4859 3.10969 26.9332 2.99986 26.375 3H13.625C13.0668 2.99986 12.5141 3.10969 11.9984 3.32323C11.4827 3.53676 11.0142 3.84981 10.6195 4.24449C10.2248 4.63916 9.91176 5.10773 9.69823 5.62343C9.48469 6.13913 9.37486 6.69184 9.375 7.25V32.75C9.37486 33.3082 9.48469 33.8609 9.69823 34.3766C9.91176 34.8923 10.2248 35.3608 10.6195 35.7555C11.0142 36.1502 11.4827 36.4632 11.9984 36.6768C12.5141 36.8903 13.0668 37.0001 13.625 37H26.375C26.9332 37.0001 27.4859 36.8903 28.0016 36.6768C28.5173 36.4632 28.9858 36.1502 29.3805 35.7555C29.7752 35.3608 30.0882 34.8923 30.3018 34.3766C30.5153 33.8609 30.6251 33.3082 30.625 32.75ZM28.5 30.625V32.75C28.5001 33.0291 28.4453 33.3055 28.3385 33.5634C28.2318 33.8212 28.0753 34.0556 27.8779 34.2529C27.6806 34.4503 27.4462 34.6068 27.1884 34.7135C26.9305 34.8203 26.6541 34.8751 26.375 34.875H13.625C13.0615 34.8747 12.5212 34.6507 12.1227 34.2523C11.7243 33.8538 11.5003 33.3135 11.5 32.75V30.625H28.5ZM18.4062 33.8125H21.5938C22.1781 33.8125 22.6562 33.3365 22.6562 32.75C22.6562 32.1635 22.1781 31.6875 21.5938 31.6875H18.4062C17.8219 31.6875 17.3438 32.1635 17.3438 32.75C17.3438 33.3365 17.8219 33.8125 18.4062 33.8125ZM28.5 7.25H11.5C11.4999 6.9709 11.5547 6.69451 11.6615 6.43663C11.7682 6.17875 11.9247 5.94444 12.1221 5.74709C12.3194 5.54973 12.5538 5.39321 12.8116 5.28647C13.0695 5.17973 13.3459 5.12486 13.625 5.125H26.375C26.9385 5.12528 27.4788 5.34926 27.8773 5.74771C28.2757 6.14616 28.4997 6.6865 28.5 7.25Z" fill="#C5ADF9"/>
</svg>
