<svg width="40" height="40" viewBox="0 0 40 40" fill="none" xmlns="http://www.w3.org/2000/svg">
<path d="M28.1382 11.1807C27.7634 11.1807 27.4584 11.4857 27.4584 11.8604C27.4584 12.2352 27.7634 12.5402 28.1382 12.5402C28.513 12.5402 28.818 12.2353 28.818 11.8604C28.818 11.4856 28.513 11.1807 28.1382 11.1807ZM19.999 13.9733C16.6761 13.9733 13.9727 16.6767 13.9727 19.9996C13.9727 23.3225 16.6761 26.026 19.999 26.026C23.322 26.026 26.0254 23.3226 26.0254 19.9997C26.0254 16.6768 23.322 13.9733 19.999 13.9733Z" fill="#C5ADF9"/>
<path d="M26.3242 6H13.6758C9.44334 6 6 9.44334 6 13.6758V26.3242C6 30.5567 9.44334 34 13.6758 34H26.3242C30.5567 34 34 30.5567 34 26.3242V13.6758C34 9.44334 30.5567 6 26.3242 6ZM20 27.6799C15.7653 27.6799 12.3202 24.2347 12.3202 20C12.3202 15.7653 15.7653 12.3202 20 12.3202C24.2347 12.3202 27.6799 15.7653 27.6799 20C27.6799 24.2347 24.2347 27.6799 20 27.6799ZM28.1392 14.1942C26.8526 14.1942 25.8059 13.1474 25.8059 11.8609C25.8059 10.5743 26.8526 9.52751 28.1392 9.52751C29.4258 9.52751 30.4725 10.5742 30.4725 11.8608C30.4725 13.1474 29.4258 14.1942 28.1392 14.1942Z" fill="#C5ADF9"/>
</svg>
